# Simple peg-man humanoid
o PegMan
v 0.2000 0.0000 0.0000
v 0.1848 0.0000 0.0765
v 0.1414 0.0000 0.1414
v 0.0765 0.0000 0.1848
v 0.0000 0.0000 0.2000
v -0.0765 0.0000 0.1848
v -0.1414 0.0000 0.1414
v -0.1848 0.0000 0.0765
v -0.2000 0.0000 0.0000
v -0.1848 0.0000 -0.0765
v -0.1414 0.0000 -0.1414
v -0.0765 0.0000 -0.1848
v -0.0000 0.0000 -0.2000
v 0.0765 0.0000 -0.1848
v 0.1414 0.0000 -0.1414
v 0.1848 0.0000 -0.0765
v 0.2000 1.1000 0.0000
v 0.1848 1.1000 0.0765
v 0.1414 1.1000 0.1414
v 0.0765 1.1000 0.1848
v 0.0000 1.1000 0.2000
v -0.0765 1.1000 0.1848
v -0.1414 1.1000 0.1414
v -0.1848 1.1000 0.0765
v -0.2000 1.1000 0.0000
v -0.1848 1.1000 -0.0765
v -0.1414 1.1000 -0.1414
v -0.0765 1.1000 -0.1848
v -0.0000 1.1000 -0.2000
v 0.0765 1.1000 -0.1848
v 0.1414 1.1000 -0.1414
v 0.1848 1.1000 -0.0765
v 0.0000 0.0000 0.0000
v 0.0000 1.1000 0.0000
v 0.0000 1.5800 0.0000
v 0.0000 1.5800 0.0000
v 0.0000 1.5800 0.0000
v 0.0000 1.5800 0.0000
v 0.0000 1.5800 0.0000
v 0.0000 1.5800 0.0000
v 0.0000 1.5800 0.0000
v 0.0000 1.5800 0.0000
v 0.0000 1.5800 0.0000
v 0.0000 1.5800 0.0000
v 0.0000 1.5800 0.0000
v 0.0000 1.5800 0.0000
v 0.0000 1.5800 0.0000
v 0.0000 1.5800 0.0000
v 0.0000 1.5800 0.0000
v 0.0000 1.5800 0.0000
v 0.0689 1.5663 0.0000
v 0.0636 1.5663 0.0264
v 0.0487 1.5663 0.0487
v 0.0264 1.5663 0.0636
v 0.0000 1.5663 0.0689
v -0.0264 1.5663 0.0636
v -0.0487 1.5663 0.0487
v -0.0636 1.5663 0.0264
v -0.0689 1.5663 0.0000
v -0.0636 1.5663 -0.0264
v -0.0487 1.5663 -0.0487
v -0.0264 1.5663 -0.0636
v -0.0000 1.5663 -0.0689
v 0.0264 1.5663 -0.0636
v 0.0487 1.5663 -0.0487
v 0.0636 1.5663 -0.0264
v 0.1273 1.5273 0.0000
v 0.1176 1.5273 0.0487
v 0.0900 1.5273 0.0900
v 0.0487 1.5273 0.1176
v 0.0000 1.5273 0.1273
v -0.0487 1.5273 0.1176
v -0.0900 1.5273 0.0900
v -0.1176 1.5273 0.0487
v -0.1273 1.5273 0.0000
v -0.1176 1.5273 -0.0487
v -0.0900 1.5273 -0.0900
v -0.0487 1.5273 -0.1176
v -0.0000 1.5273 -0.1273
v 0.0487 1.5273 -0.1176
v 0.0900 1.5273 -0.0900
v 0.1176 1.5273 -0.0487
v 0.1663 1.4689 0.0000
v 0.1536 1.4689 0.0636
v 0.1176 1.4689 0.1176
v 0.0636 1.4689 0.1536
v 0.0000 1.4689 0.1663
v -0.0636 1.4689 0.1536
v -0.1176 1.4689 0.1176
v -0.1536 1.4689 0.0636
v -0.1663 1.4689 0.0000
v -0.1536 1.4689 -0.0636
v -0.1176 1.4689 -0.1176
v -0.0636 1.4689 -0.1536
v -0.0000 1.4689 -0.1663
v 0.0636 1.4689 -0.1536
v 0.1176 1.4689 -0.1176
v 0.1536 1.4689 -0.0636
v 0.1800 1.4000 0.0000
v 0.1663 1.4000 0.0689
v 0.1273 1.4000 0.1273
v 0.0689 1.4000 0.1663
v 0.0000 1.4000 0.1800
v -0.0689 1.4000 0.1663
v -0.1273 1.4000 0.1273
v -0.1663 1.4000 0.0689
v -0.1800 1.4000 0.0000
v -0.1663 1.4000 -0.0689
v -0.1273 1.4000 -0.1273
v -0.0689 1.4000 -0.1663
v -0.0000 1.4000 -0.1800
v 0.0689 1.4000 -0.1663
v 0.1273 1.4000 -0.1273
v 0.1663 1.4000 -0.0689
v 0.1663 1.3311 0.0000
v 0.1536 1.3311 0.0636
v 0.1176 1.3311 0.1176
v 0.0636 1.3311 0.1536
v 0.0000 1.3311 0.1663
v -0.0636 1.3311 0.1536
v -0.1176 1.3311 0.1176
v -0.1536 1.3311 0.0636
v -0.1663 1.3311 0.0000
v -0.1536 1.3311 -0.0636
v -0.1176 1.3311 -0.1176
v -0.0636 1.3311 -0.1536
v -0.0000 1.3311 -0.1663
v 0.0636 1.3311 -0.1536
v 0.1176 1.3311 -0.1176
v 0.1536 1.3311 -0.0636
v 0.1273 1.2727 0.0000
v 0.1176 1.2727 0.0487
v 0.0900 1.2727 0.0900
v 0.0487 1.2727 0.1176
v 0.0000 1.2727 0.1273
v -0.0487 1.2727 0.1176
v -0.0900 1.2727 0.0900
v -0.1176 1.2727 0.0487
v -0.1273 1.2727 0.0000
v -0.1176 1.2727 -0.0487
v -0.0900 1.2727 -0.0900
v -0.0487 1.2727 -0.1176
v -0.0000 1.2727 -0.1273
v 0.0487 1.2727 -0.1176
v 0.0900 1.2727 -0.0900
v 0.1176 1.2727 -0.0487
v 0.0689 1.2337 0.0000
v 0.0636 1.2337 0.0264
v 0.0487 1.2337 0.0487
v 0.0264 1.2337 0.0636
v 0.0000 1.2337 0.0689
v -0.0264 1.2337 0.0636
v -0.0487 1.2337 0.0487
v -0.0636 1.2337 0.0264
v -0.0689 1.2337 0.0000
v -0.0636 1.2337 -0.0264
v -0.0487 1.2337 -0.0487
v -0.0264 1.2337 -0.0636
v -0.0000 1.2337 -0.0689
v 0.0264 1.2337 -0.0636
v 0.0487 1.2337 -0.0487
v 0.0636 1.2337 -0.0264
v 0.0000 1.2200 0.0000
v 0.0000 1.2200 0.0000
v 0.0000 1.2200 0.0000
v 0.0000 1.2200 0.0000
v 0.0000 1.2200 0.0000
v -0.0000 1.2200 0.0000
v -0.0000 1.2200 0.0000
v -0.0000 1.2200 0.0000
v -0.0000 1.2200 0.0000
v -0.0000 1.2200 -0.0000
v -0.0000 1.2200 -0.0000
v -0.0000 1.2200 -0.0000
v -0.0000 1.2200 -0.0000
v 0.0000 1.2200 -0.0000
v 0.0000 1.2200 -0.0000
v 0.0000 1.2200 -0.0000
v -0.0300 -0.9000 0.0000
v -0.0369 -0.9000 0.0344
v -0.0564 -0.9000 0.0636
v -0.0856 -0.9000 0.0831
v -0.1200 -0.9000 0.0900
v -0.1544 -0.9000 0.0831
v -0.1836 -0.9000 0.0636
v -0.2031 -0.9000 0.0344
v -0.2100 -0.9000 0.0000
v -0.2031 -0.9000 -0.0344
v -0.1836 -0.9000 -0.0636
v -0.1544 -0.9000 -0.0831
v -0.1200 -0.9000 -0.0900
v -0.0856 -0.9000 -0.0831
v -0.0564 -0.9000 -0.0636
v -0.0369 -0.9000 -0.0344
v -0.0300 0.0000 0.0000
v -0.0369 0.0000 0.0344
v -0.0564 0.0000 0.0636
v -0.0856 0.0000 0.0831
v -0.1200 0.0000 0.0900
v -0.1544 0.0000 0.0831
v -0.1836 0.0000 0.0636
v -0.2031 0.0000 0.0344
v -0.2100 0.0000 0.0000
v -0.2031 0.0000 -0.0344
v -0.1836 0.0000 -0.0636
v -0.1544 0.0000 -0.0831
v -0.1200 0.0000 -0.0900
v -0.0856 0.0000 -0.0831
v -0.0564 0.0000 -0.0636
v -0.0369 0.0000 -0.0344
v -0.1200 -0.9000 0.0000
v -0.1200 0.0000 0.0000
v 0.2100 -0.9000 0.0000
v 0.2031 -0.9000 0.0344
v 0.1836 -0.9000 0.0636
v 0.1544 -0.9000 0.0831
v 0.1200 -0.9000 0.0900
v 0.0856 -0.9000 0.0831
v 0.0564 -0.9000 0.0636
v 0.0369 -0.9000 0.0344
v 0.0300 -0.9000 0.0000
v 0.0369 -0.9000 -0.0344
v 0.0564 -0.9000 -0.0636
v 0.0856 -0.9000 -0.0831
v 0.1200 -0.9000 -0.0900
v 0.1544 -0.9000 -0.0831
v 0.1836 -0.9000 -0.0636
v 0.2031 -0.9000 -0.0344
v 0.2100 0.0000 0.0000
v 0.2031 0.0000 0.0344
v 0.1836 0.0000 0.0636
v 0.1544 0.0000 0.0831
v 0.1200 0.0000 0.0900
v 0.0856 0.0000 0.0831
v 0.0564 0.0000 0.0636
v 0.0369 0.0000 0.0344
v 0.0300 0.0000 0.0000
v 0.0369 0.0000 -0.0344
v 0.0564 0.0000 -0.0636
v 0.0856 0.0000 -0.0831
v 0.1200 0.0000 -0.0900
v 0.1544 0.0000 -0.0831
v 0.1836 0.0000 -0.0636
v 0.2031 0.0000 -0.0344
v 0.1200 -0.9000 0.0000
v 0.1200 0.0000 0.0000
v -0.6000 0.9800 0.0000
v -0.6000 0.9739 0.0306
v -0.6000 0.9566 0.0566
v -0.6000 0.9306 0.0739
v -0.6000 0.9000 0.0800
v -0.6000 0.8694 0.0739
v -0.6000 0.8434 0.0566
v -0.6000 0.8261 0.0306
v -0.6000 0.8200 0.0000
v -0.6000 0.8261 -0.0306
v -0.6000 0.8434 -0.0566
v -0.6000 0.8694 -0.0739
v -0.6000 0.9000 -0.0800
v -0.6000 0.9306 -0.0739
v -0.6000 0.9566 -0.0566
v -0.6000 0.9739 -0.0306
v -0.2000 0.9800 0.0000
v -0.2000 0.9739 0.0306
v -0.2000 0.9566 0.0566
v -0.2000 0.9306 0.0739
v -0.2000 0.9000 0.0800
v -0.2000 0.8694 0.0739
v -0.2000 0.8434 0.0566
v -0.2000 0.8261 0.0306
v -0.2000 0.8200 0.0000
v -0.2000 0.8261 -0.0306
v -0.2000 0.8434 -0.0566
v -0.2000 0.8694 -0.0739
v -0.2000 0.9000 -0.0800
v -0.2000 0.9306 -0.0739
v -0.2000 0.9566 -0.0566
v -0.2000 0.9739 -0.0306
v -0.6000 0.9000 0.0000
v -0.2000 0.9000 0.0000
v 0.2000 0.9800 0.0000
v 0.2000 0.9739 0.0306
v 0.2000 0.9566 0.0566
v 0.2000 0.9306 0.0739
v 0.2000 0.9000 0.0800
v 0.2000 0.8694 0.0739
v 0.2000 0.8434 0.0566
v 0.2000 0.8261 0.0306
v 0.2000 0.8200 0.0000
v 0.2000 0.8261 -0.0306
v 0.2000 0.8434 -0.0566
v 0.2000 0.8694 -0.0739
v 0.2000 0.9000 -0.0800
v 0.2000 0.9306 -0.0739
v 0.2000 0.9566 -0.0566
v 0.2000 0.9739 -0.0306
v 0.6000 0.9800 0.0000
v 0.6000 0.9739 0.0306
v 0.6000 0.9566 0.0566
v 0.6000 0.9306 0.0739
v 0.6000 0.9000 0.0800
v 0.6000 0.8694 0.0739
v 0.6000 0.8434 0.0566
v 0.6000 0.8261 0.0306
v 0.6000 0.8200 0.0000
v 0.6000 0.8261 -0.0306
v 0.6000 0.8434 -0.0566
v 0.6000 0.8694 -0.0739
v 0.6000 0.9000 -0.0800
v 0.6000 0.9306 -0.0739
v 0.6000 0.9566 -0.0566
v 0.6000 0.9739 -0.0306
v 0.2000 0.9000 0.0000
v 0.6000 0.9000 0.0000
f 1 2 18
f 1 18 17
f 2 3 19
f 2 19 18
f 3 4 20
f 3 20 19
f 4 5 21
f 4 21 20
f 5 6 22
f 5 22 21
f 6 7 23
f 6 23 22
f 7 8 24
f 7 24 23
f 8 9 25
f 8 25 24
f 9 10 26
f 9 26 25
f 10 11 27
f 10 27 26
f 11 12 28
f 11 28 27
f 12 13 29
f 12 29 28
f 13 14 30
f 13 30 29
f 14 15 31
f 14 31 30
f 15 16 32
f 15 32 31
f 16 1 17
f 16 17 32
f 33 2 1
f 33 3 2
f 33 4 3
f 33 5 4
f 33 6 5
f 33 7 6
f 33 8 7
f 33 9 8
f 33 10 9
f 33 11 10
f 33 12 11
f 33 13 12
f 33 14 13
f 33 15 14
f 33 16 15
f 33 1 16
f 34 17 18
f 34 18 19
f 34 19 20
f 34 20 21
f 34 21 22
f 34 22 23
f 34 23 24
f 34 24 25
f 34 25 26
f 34 26 27
f 34 27 28
f 34 28 29
f 34 29 30
f 34 30 31
f 34 31 32
f 34 32 17
f 35 52 51
f 36 53 52
f 37 54 53
f 38 55 54
f 39 56 55
f 40 57 56
f 41 58 57
f 42 59 58
f 43 60 59
f 44 61 60
f 45 62 61
f 46 63 62
f 47 64 63
f 48 65 64
f 49 66 65
f 50 51 66
f 51 52 68
f 51 68 67
f 52 53 69
f 52 69 68
f 53 54 70
f 53 70 69
f 54 55 71
f 54 71 70
f 55 56 72
f 55 72 71
f 56 57 73
f 56 73 72
f 57 58 74
f 57 74 73
f 58 59 75
f 58 75 74
f 59 60 76
f 59 76 75
f 60 61 77
f 60 77 76
f 61 62 78
f 61 78 77
f 62 63 79
f 62 79 78
f 63 64 80
f 63 80 79
f 64 65 81
f 64 81 80
f 65 66 82
f 65 82 81
f 66 51 67
f 66 67 82
f 67 68 84
f 67 84 83
f 68 69 85
f 68 85 84
f 69 70 86
f 69 86 85
f 70 71 87
f 70 87 86
f 71 72 88
f 71 88 87
f 72 73 89
f 72 89 88
f 73 74 90
f 73 90 89
f 74 75 91
f 74 91 90
f 75 76 92
f 75 92 91
f 76 77 93
f 76 93 92
f 77 78 94
f 77 94 93
f 78 79 95
f 78 95 94
f 79 80 96
f 79 96 95
f 80 81 97
f 80 97 96
f 81 82 98
f 81 98 97
f 82 67 83
f 82 83 98
f 83 84 100
f 83 100 99
f 84 85 101
f 84 101 100
f 85 86 102
f 85 102 101
f 86 87 103
f 86 103 102
f 87 88 104
f 87 104 103
f 88 89 105
f 88 105 104
f 89 90 106
f 89 106 105
f 90 91 107
f 90 107 106
f 91 92 108
f 91 108 107
f 92 93 109
f 92 109 108
f 93 94 110
f 93 110 109
f 94 95 111
f 94 111 110
f 95 96 112
f 95 112 111
f 96 97 113
f 96 113 112
f 97 98 114
f 97 114 113
f 98 83 99
f 98 99 114
f 99 100 116
f 99 116 115
f 100 101 117
f 100 117 116
f 101 102 118
f 101 118 117
f 102 103 119
f 102 119 118
f 103 104 120
f 103 120 119
f 104 105 121
f 104 121 120
f 105 106 122
f 105 122 121
f 106 107 123
f 106 123 122
f 107 108 124
f 107 124 123
f 108 109 125
f 108 125 124
f 109 110 126
f 109 126 125
f 110 111 127
f 110 127 126
f 111 112 128
f 111 128 127
f 112 113 129
f 112 129 128
f 113 114 130
f 113 130 129
f 114 99 115
f 114 115 130
f 115 116 132
f 115 132 131
f 116 117 133
f 116 133 132
f 117 118 134
f 117 134 133
f 118 119 135
f 118 135 134
f 119 120 136
f 119 136 135
f 120 121 137
f 120 137 136
f 121 122 138
f 121 138 137
f 122 123 139
f 122 139 138
f 123 124 140
f 123 140 139
f 124 125 141
f 124 141 140
f 125 126 142
f 125 142 141
f 126 127 143
f 126 143 142
f 127 128 144
f 127 144 143
f 128 129 145
f 128 145 144
f 129 130 146
f 129 146 145
f 130 115 131
f 130 131 146
f 131 132 148
f 131 148 147
f 132 133 149
f 132 149 148
f 133 134 150
f 133 150 149
f 134 135 151
f 134 151 150
f 135 136 152
f 135 152 151
f 136 137 153
f 136 153 152
f 137 138 154
f 137 154 153
f 138 139 155
f 138 155 154
f 139 140 156
f 139 156 155
f 140 141 157
f 140 157 156
f 141 142 158
f 141 158 157
f 142 143 159
f 142 159 158
f 143 144 160
f 143 160 159
f 144 145 161
f 144 161 160
f 145 146 162
f 145 162 161
f 146 131 147
f 146 147 162
f 147 148 164
f 148 149 165
f 149 150 166
f 150 151 167
f 151 152 168
f 152 153 169
f 153 154 170
f 154 155 171
f 155 156 172
f 156 157 173
f 157 158 174
f 158 159 175
f 159 160 176
f 160 161 177
f 161 162 178
f 162 147 163
f 179 180 196
f 179 196 195
f 180 181 197
f 180 197 196
f 181 182 198
f 181 198 197
f 182 183 199
f 182 199 198
f 183 184 200
f 183 200 199
f 184 185 201
f 184 201 200
f 185 186 202
f 185 202 201
f 186 187 203
f 186 203 202
f 187 188 204
f 187 204 203
f 188 189 205
f 188 205 204
f 189 190 206
f 189 206 205
f 190 191 207
f 190 207 206
f 191 192 208
f 191 208 207
f 192 193 209
f 192 209 208
f 193 194 210
f 193 210 209
f 194 179 195
f 194 195 210
f 211 180 179
f 211 181 180
f 211 182 181
f 211 183 182
f 211 184 183
f 211 185 184
f 211 186 185
f 211 187 186
f 211 188 187
f 211 189 188
f 211 190 189
f 211 191 190
f 211 192 191
f 211 193 192
f 211 194 193
f 211 179 194
f 212 195 196
f 212 196 197
f 212 197 198
f 212 198 199
f 212 199 200
f 212 200 201
f 212 201 202
f 212 202 203
f 212 203 204
f 212 204 205
f 212 205 206
f 212 206 207
f 212 207 208
f 212 208 209
f 212 209 210
f 212 210 195
f 213 214 230
f 213 230 229
f 214 215 231
f 214 231 230
f 215 216 232
f 215 232 231
f 216 217 233
f 216 233 232
f 217 218 234
f 217 234 233
f 218 219 235
f 218 235 234
f 219 220 236
f 219 236 235
f 220 221 237
f 220 237 236
f 221 222 238
f 221 238 237
f 222 223 239
f 222 239 238
f 223 224 240
f 223 240 239
f 224 225 241
f 224 241 240
f 225 226 242
f 225 242 241
f 226 227 243
f 226 243 242
f 227 228 244
f 227 244 243
f 228 213 229
f 228 229 244
f 245 214 213
f 245 215 214
f 245 216 215
f 245 217 216
f 245 218 217
f 245 219 218
f 245 220 219
f 245 221 220
f 245 222 221
f 245 223 222
f 245 224 223
f 245 225 224
f 245 226 225
f 245 227 226
f 245 228 227
f 245 213 228
f 246 229 230
f 246 230 231
f 246 231 232
f 246 232 233
f 246 233 234
f 246 234 235
f 246 235 236
f 246 236 237
f 246 237 238
f 246 238 239
f 246 239 240
f 246 240 241
f 246 241 242
f 246 242 243
f 246 243 244
f 246 244 229
f 247 248 264
f 247 264 263
f 248 249 265
f 248 265 264
f 249 250 266
f 249 266 265
f 250 251 267
f 250 267 266
f 251 252 268
f 251 268 267
f 252 253 269
f 252 269 268
f 253 254 270
f 253 270 269
f 254 255 271
f 254 271 270
f 255 256 272
f 255 272 271
f 256 257 273
f 256 273 272
f 257 258 274
f 257 274 273
f 258 259 275
f 258 275 274
f 259 260 276
f 259 276 275
f 260 261 277
f 260 277 276
f 261 262 278
f 261 278 277
f 262 247 263
f 262 263 278
f 279 247 248
f 279 248 249
f 279 249 250
f 279 250 251
f 279 251 252
f 279 252 253
f 279 253 254
f 279 254 255
f 279 255 256
f 279 256 257
f 279 257 258
f 279 258 259
f 279 259 260
f 279 260 261
f 279 261 262
f 279 262 247
f 280 264 263
f 280 265 264
f 280 266 265
f 280 267 266
f 280 268 267
f 280 269 268
f 280 270 269
f 280 271 270
f 280 272 271
f 280 273 272
f 280 274 273
f 280 275 274
f 280 276 275
f 280 277 276
f 280 278 277
f 280 263 278
f 281 282 298
f 281 298 297
f 282 283 299
f 282 299 298
f 283 284 300
f 283 300 299
f 284 285 301
f 284 301 300
f 285 286 302
f 285 302 301
f 286 287 303
f 286 303 302
f 287 288 304
f 287 304 303
f 288 289 305
f 288 305 304
f 289 290 306
f 289 306 305
f 290 291 307
f 290 307 306
f 291 292 308
f 291 308 307
f 292 293 309
f 292 309 308
f 293 294 310
f 293 310 309
f 294 295 311
f 294 311 310
f 295 296 312
f 295 312 311
f 296 281 297
f 296 297 312
f 313 281 282
f 313 282 283
f 313 283 284
f 313 284 285
f 313 285 286
f 313 286 287
f 313 287 288
f 313 288 289
f 313 289 290
f 313 290 291
f 313 291 292
f 313 292 293
f 313 293 294
f 313 294 295
f 313 295 296
f 313 296 281
f 314 298 297
f 314 299 298
f 314 300 299
f 314 301 300
f 314 302 301
f 314 303 302
f 314 304 303
f 314 305 304
f 314 306 305
f 314 307 306
f 314 308 307
f 314 309 308
f 314 310 309
f 314 311 310
f 314 312 311
f 314 297 312
