# Blender 4.5.2 LTS
# www.blender.org
mtllib DeckPortForwardRear.mtl
o exact_from_image_slab.001
v -2.470000 -0.123500 0.075000
v -2.470000 -0.123500 0.225000
v -2.470000 -0.123500 0.375000
v -2.470000 -0.123500 0.525000
v -2.470000 -0.123500 0.675000
v -2.470000 -0.123500 0.825000
v -2.470000 -0.123500 0.975000
v -2.470000 -0.123500 1.125000
v -2.470000 -0.090515 0.075000
v -2.470000 -0.090515 0.225000
v -2.470000 -0.090515 0.375000
v -2.470000 -0.090515 0.525000
v -2.470000 -0.090515 0.675000
v -2.470000 -0.090515 0.825000
v -2.470000 -0.090515 0.975000
v -2.470000 -0.090515 1.125000
v -2.470000 -0.030875 0.075000
v -2.470000 -0.030875 0.225000
v -2.470000 -0.030875 0.375000
v -2.470000 -0.030875 0.525000
v -2.470000 -0.030875 0.675000
v -2.470000 -0.030875 0.825000
v -2.470000 -0.030875 0.975000
v -2.470000 -0.030875 1.125000
v -2.470000 -0.123500 1.274990
v -2.469911 -0.123411 1.424968
v -2.469733 -0.123233 1.574940
v -2.469422 -0.123014 1.723053
v -2.469094 -0.122834 1.832940
v -2.470000 -0.090513 1.274991
v -2.470000 -0.090511 1.424971
v -2.469908 -0.090495 1.574946
v -2.469825 -0.090481 1.722641
v -2.469524 -0.091326 1.875519
v -2.458501 -0.071440 1.943677
v -2.470000 -0.030874 1.274997
v -2.470000 -0.030869 1.424989
v -2.470000 -0.030860 1.574981
v -2.470000 -0.030675 1.723197
v -2.470000 -0.030485 1.869480
v -2.459106 -0.029842 1.951230
v -2.437015 -0.123500 0.075000
v -2.437015 -0.123500 0.225000
v -2.437015 -0.123500 0.375000
v -2.437015 -0.123500 0.525000
v -2.437015 -0.123500 0.675000
v -2.437015 -0.123500 0.825000
v -2.437015 -0.123500 0.975000
v -2.437015 -0.123500 1.125000
v -2.377375 -0.123500 0.075000
v -2.377375 -0.123500 0.225000
v -2.377375 -0.123500 0.375000
v -2.377375 -0.123500 0.525000
v -2.377375 -0.123500 0.675000
v -2.377375 -0.123500 0.825000
v -2.377375 -0.123500 0.975000
v -2.377375 -0.123500 1.125000
v -2.315625 -0.123500 0.075000
v -2.315625 -0.123500 0.225000
v -2.315625 -0.123500 0.375000
v -2.315625 -0.123500 0.525000
v -2.315625 -0.123500 0.675000
v -2.315625 -0.123500 0.825000
v -2.315625 -0.123500 0.975000
v -2.315625 -0.123500 1.125000
v -2.253875 -0.123500 0.075000
v -2.253875 -0.123500 0.225000
v -2.253875 -0.123500 0.375000
v -2.253875 -0.123500 0.525000
v -2.253875 -0.123500 0.675000
v -2.253875 -0.123500 0.825000
v -2.253875 -0.123500 0.975000
v -2.253875 -0.123500 1.125000
v -2.192125 -0.123500 0.075000
v -2.192125 -0.123500 0.225000
v -2.192125 -0.123500 0.375000
v -2.192125 -0.123500 0.525000
v -2.192125 -0.123500 0.675000
v -2.192125 -0.123500 0.825000
v -2.192125 -0.123500 0.975000
v -2.192125 -0.123500 1.125000
v -2.130375 -0.123500 0.075000
v -2.130375 -0.123500 0.225000
v -2.130375 -0.123500 0.375000
v -2.130375 -0.123500 0.525000
v -2.130375 -0.123500 0.675000
v -2.130375 -0.123500 0.825000
v -2.130375 -0.123500 0.975000
v -2.130375 -0.123500 1.125000
v -2.068625 -0.123500 0.075000
v -2.068625 -0.123500 0.225000
v -2.068625 -0.123500 0.375000
v -2.068625 -0.123500 0.525000
v -2.068625 -0.123500 0.675000
v -2.068625 -0.123500 0.825000
v -2.068625 -0.123500 0.975000
v -2.068625 -0.123500 1.125000
v -2.006875 -0.123500 0.075000
v -2.006875 -0.123500 0.225000
v -2.006875 -0.123500 0.375000
v -2.006875 -0.123500 0.525000
v -2.006875 -0.123500 0.675000
v -2.006875 -0.123500 0.825000
v -2.006875 -0.123500 0.975000
v -2.006875 -0.123500 1.125000
v -2.437014 -0.123500 1.274991
v -2.437011 -0.123500 1.424972
v -2.437004 -0.123500 1.574948
v -2.436836 -0.123500 1.723336
v -2.438441 -0.123500 1.875937
v -2.413980 -0.106561 1.974015
v -2.454356 -0.106899 1.920113
v -2.377374 -0.123500 1.274997
v -2.377369 -0.123500 1.424991
v -2.377359 -0.123500 1.574984
v -2.377088 -0.123500 1.724358
v -2.376258 -0.123500 1.872410
v -2.315625 -0.123500 1.275000
v -2.315625 -0.123500 1.425000
v -2.315625 -0.123500 1.575000
v -2.315625 -0.123500 1.725000
v -2.315367 -0.123500 1.874374
v -2.253875 -0.123500 1.275000
v -2.253875 -0.123500 1.425000
v -2.253875 -0.123500 1.575000
v -2.253875 -0.123500 1.725000
v -2.253875 -0.123500 1.875000
v -2.192125 -0.123500 1.275000
v -2.192125 -0.123500 1.425000
v -2.192125 -0.123500 1.575000
v -2.192125 -0.123500 1.725000
v -2.192125 -0.123500 1.875000
v -2.130375 -0.123500 1.275000
v -2.130375 -0.123500 1.425000
v -2.130375 -0.123500 1.575000
v -2.130375 -0.123500 1.725000
v -2.130375 -0.123500 1.875000
v -2.068625 -0.123500 1.275000
v -2.068625 -0.123500 1.425000
v -2.068625 -0.123500 1.575000
v -2.068625 -0.123500 1.725000
v -2.068625 -0.123500 1.875000
v -2.006875 -0.123500 1.275000
v -2.006875 -0.123500 1.425000
v -2.006875 -0.123500 1.575000
v -2.006875 -0.123500 1.725000
v -2.006875 -0.123500 1.875000
v -1.945125 -0.123500 0.075000
v -1.945125 -0.123500 0.225000
v -1.945125 -0.123500 0.375000
v -1.945125 -0.123500 0.525000
v -1.945125 -0.123500 0.675000
v -1.945125 -0.123500 0.825000
v -1.945125 -0.123500 0.975000
v -1.945125 -0.123500 1.125000
v -1.883375 -0.123500 0.075000
v -1.883375 -0.123500 0.225000
v -1.883375 -0.123500 0.375000
v -1.883375 -0.123500 0.525000
v -1.883375 -0.123500 0.675000
v -1.883375 -0.123500 0.825000
v -1.883375 -0.123500 0.975000
v -1.883375 -0.123500 1.125000
v -1.821625 -0.123500 0.075000
v -1.821625 -0.123500 0.225000
v -1.821625 -0.123500 0.375000
v -1.821625 -0.123500 0.525000
v -1.821625 -0.123500 0.675000
v -1.821625 -0.123500 0.825000
v -1.821625 -0.123500 0.975000
v -1.821625 -0.123500 1.125000
v -1.759875 -0.123500 0.075000
v -1.759875 -0.123500 0.225000
v -1.759875 -0.123500 0.375000
v -1.759875 -0.123500 0.525000
v -1.759875 -0.123500 0.675000
v -1.759875 -0.123500 0.825000
v -1.759875 -0.123500 0.975000
v -1.759875 -0.123500 1.125000
v -1.698125 -0.123500 0.075000
v -1.698125 -0.123500 0.225000
v -1.698125 -0.123500 0.375000
v -1.698125 -0.123500 0.525000
v -1.698125 -0.123500 0.675000
v -1.698125 -0.123500 0.825000
v -1.698125 -0.123500 0.975000
v -1.698125 -0.123500 1.125000
v -1.636375 -0.123500 0.075000
v -1.636375 -0.123500 0.225000
v -1.636375 -0.123500 0.375000
v -1.636375 -0.123500 0.525000
v -1.636375 -0.123500 0.675000
v -1.636375 -0.123500 0.825000
v -1.636375 -0.123500 0.975000
v -1.636375 -0.123500 1.125000
v -1.574625 -0.123500 0.075000
v -1.574625 -0.123500 0.225000
v -1.574625 -0.123500 0.375000
v -1.574625 -0.123500 0.525000
v -1.574625 -0.123500 0.675000
v -1.574625 -0.123500 0.825000
v -1.574625 -0.123500 0.975000
v -1.574625 -0.123500 1.125000
v -1.512875 -0.123500 0.075000
v -1.512875 -0.123500 0.225000
v -1.512875 -0.123500 0.375000
v -1.512875 -0.123500 0.525000
v -1.512875 -0.123500 0.675000
v -1.512875 -0.123500 0.825000
v -1.512875 -0.123500 0.975000
v -1.512875 -0.123500 1.125000
v -1.945125 -0.123500 1.275000
v -1.945125 -0.123500 1.425000
v -1.945125 -0.123500 1.575000
v -1.945125 -0.123500 1.725000
v -1.945125 -0.123500 1.875000
v -1.883375 -0.123500 1.275000
v -1.883375 -0.123500 1.425000
v -1.883375 -0.123500 1.575000
v -1.883375 -0.123500 1.725000
v -1.883375 -0.123500 1.875000
v -1.821625 -0.123500 1.275000
v -1.821625 -0.123500 1.425000
v -1.821625 -0.123500 1.575000
v -1.821625 -0.123500 1.725000
v -1.821625 -0.123500 1.875000
v -1.759875 -0.123500 1.275000
v -1.759875 -0.123500 1.425000
v -1.759875 -0.123500 1.575000
v -1.759875 -0.123500 1.725000
v -1.759875 -0.123500 1.875000
v -1.698125 -0.123500 1.275000
v -1.698125 -0.123500 1.425000
v -1.698125 -0.123500 1.575000
v -1.698125 -0.123500 1.725000
v -1.698125 -0.123500 1.875000
v -1.636375 -0.123500 1.275000
v -1.636375 -0.123500 1.425000
v -1.636375 -0.123500 1.575000
v -1.636375 -0.123500 1.725000
v -1.636375 -0.123500 1.875000
v -1.574625 -0.123500 1.275000
v -1.574625 -0.123500 1.425000
v -1.574625 -0.123500 1.575000
v -1.574625 -0.123500 1.725000
v -1.574625 -0.123500 1.875000
v -1.512875 -0.123500 1.275000
v -1.512875 -0.123500 1.425000
v -1.512875 -0.123500 1.575000
v -1.512875 -0.123500 1.725000
v -1.512875 -0.123500 1.875000
v -1.451125 -0.123500 0.075000
v -1.451125 -0.123500 0.225000
v -1.451125 -0.123500 0.375000
v -1.451125 -0.123500 0.525000
v -1.451125 -0.123500 0.675000
v -1.451125 -0.123500 0.825000
v -1.451125 -0.123500 0.975000
v -1.451125 -0.123500 1.125000
v -1.389375 -0.123500 0.075000
v -1.389375 -0.123500 0.225000
v -1.389375 -0.123500 0.375000
v -1.389375 -0.123500 0.525000
v -1.389375 -0.123500 0.675000
v -1.389375 -0.123500 0.825000
v -1.389375 -0.123500 0.975000
v -1.389375 -0.123500 1.125000
v -1.327625 -0.123500 0.075000
v -1.327625 -0.123500 0.225000
v -1.327625 -0.123500 0.375000
v -1.327625 -0.123500 0.525000
v -1.327625 -0.123500 0.675000
v -1.327625 -0.123500 0.825000
v -1.327625 -0.123500 0.975000
v -1.327625 -0.123500 1.125000
v -1.265875 -0.123500 0.075000
v -1.265875 -0.123500 0.225000
v -1.265875 -0.123500 0.375000
v -1.265875 -0.123500 0.525000
v -1.265875 -0.123500 0.675000
v -1.265875 -0.123500 0.825000
v -1.265875 -0.123500 0.975000
v -1.265875 -0.123500 1.125000
v -1.204125 -0.123500 0.075000
v -1.204125 -0.123500 0.225000
v -1.204125 -0.123500 0.375000
v -1.204125 -0.123500 0.525000
v -1.204125 -0.123500 0.675000
v -1.204125 -0.123500 0.825000
v -1.204125 -0.123500 0.975000
v -1.204125 -0.123500 1.125000
v -1.142375 -0.123500 0.075000
v -1.142375 -0.123500 0.225000
v -1.142375 -0.123500 0.375000
v -1.142375 -0.123500 0.525000
v -1.142375 -0.123500 0.675000
v -1.142375 -0.123500 0.825000
v -1.142375 -0.123500 0.975000
v -1.142375 -0.123500 1.125000
v -1.080625 -0.123500 0.075000
v -1.080625 -0.123500 0.225000
v -1.080625 -0.123500 0.375000
v -1.080625 -0.123500 0.525000
v -1.080625 -0.123500 0.675000
v -1.080625 -0.123500 0.825000
v -1.080625 -0.123500 0.975000
v -1.080625 -0.123500 1.125000
v -1.018875 -0.123500 0.075000
v -1.018875 -0.123500 0.225000
v -1.018875 -0.123500 0.375000
v -1.018875 -0.123500 0.525000
v -1.018875 -0.123500 0.675000
v -1.018875 -0.123500 0.825000
v -1.018875 -0.123500 0.975000
v -1.018875 -0.123500 1.125000
v -1.451125 -0.123500 1.275000
v -1.451125 -0.123500 1.425000
v -1.451125 -0.123500 1.575000
v -1.451125 -0.123500 1.725000
v -1.451125 -0.123500 1.875000
v -1.389375 -0.123500 1.275000
v -1.389375 -0.123500 1.425000
v -1.389375 -0.123500 1.575000
v -1.389375 -0.123500 1.725000
v -1.389375 -0.123500 1.875000
v -1.327625 -0.123500 1.275000
v -1.327625 -0.123500 1.425000
v -1.327625 -0.123500 1.575000
v -1.327625 -0.123500 1.725000
v -1.327625 -0.123500 1.875000
v -1.265875 -0.123500 1.275000
v -1.265875 -0.123500 1.425000
v -1.265875 -0.123500 1.575000
v -1.265875 -0.123500 1.725000
v -1.265875 -0.123500 1.875000
v -1.204125 -0.123500 1.275000
v -1.204125 -0.123500 1.425000
v -1.204125 -0.123500 1.575000
v -1.204125 -0.123500 1.725000
v -1.204125 -0.123500 1.875000
v -1.142375 -0.123500 1.275000
v -1.142375 -0.123500 1.425000
v -1.142375 -0.123500 1.575000
v -1.142375 -0.123500 1.725000
v -1.142375 -0.123500 1.875000
v -1.080625 -0.123500 1.275000
v -1.080625 -0.123500 1.425000
v -1.080625 -0.123500 1.575000
v -1.080625 -0.123500 1.725000
v -1.080625 -0.123500 1.875000
v -1.018875 -0.123500 1.275000
v -1.018875 -0.123500 1.425000
v -1.018875 -0.123500 1.575000
v -1.018875 -0.123500 1.725000
v -1.018875 -0.123500 1.875000
v -0.957125 -0.123500 0.075000
v -0.957125 -0.123500 0.225000
v -0.957125 -0.123500 0.375000
v -0.957125 -0.123500 0.525000
v -0.957125 -0.123500 0.675000
v -0.957125 -0.123500 0.825000
v -0.957125 -0.123500 0.975000
v -0.957125 -0.123500 1.125000
v -0.895375 -0.123500 0.075000
v -0.895375 -0.123500 0.225000
v -0.895375 -0.123500 0.375000
v -0.895375 -0.123500 0.525000
v -0.895375 -0.123500 0.675000
v -0.895375 -0.123500 0.825000
v -0.895375 -0.123500 0.975000
v -0.895375 -0.123500 1.125000
v -0.833625 -0.123500 0.075000
v -0.833625 -0.123500 0.225000
v -0.833625 -0.123500 0.375000
v -0.833625 -0.123500 0.525000
v -0.833625 -0.123500 0.675000
v -0.833625 -0.123500 0.825000
v -0.833625 -0.123500 0.975000
v -0.833625 -0.123500 1.125000
v -0.771875 -0.123500 0.075000
v -0.771875 -0.123500 0.225000
v -0.771875 -0.123500 0.375000
v -0.771875 -0.123500 0.525000
v -0.771875 -0.123500 0.675000
v -0.771875 -0.123500 0.825000
v -0.771875 -0.123500 0.975000
v -0.771875 -0.123500 1.125000
v -0.710125 -0.123500 0.075000
v -0.710125 -0.123500 0.225000
v -0.710125 -0.123500 0.375000
v -0.710125 -0.123500 0.525000
v -0.710125 -0.123500 0.675000
v -0.710125 -0.123500 0.825000
v -0.710125 -0.123500 0.975000
v -0.710125 -0.123500 1.125000
v -0.648375 -0.123500 0.075000
v -0.648375 -0.123500 0.225000
v -0.648375 -0.123500 0.375000
v -0.648375 -0.123500 0.525000
v -0.648375 -0.123500 0.675000
v -0.648375 -0.123500 0.825000
v -0.648375 -0.123500 0.975000
v -0.648375 -0.123500 1.125000
v -0.586625 -0.123500 0.075000
v -0.586625 -0.123500 0.225000
v -0.586625 -0.123500 0.375000
v -0.586625 -0.123500 0.525000
v -0.586625 -0.123500 0.675000
v -0.586625 -0.123500 0.825000
v -0.586625 -0.123500 0.975000
v -0.586625 -0.123500 1.125000
v -0.524875 -0.123500 0.075000
v -0.524875 -0.123500 0.225000
v -0.524875 -0.123500 0.375000
v -0.524875 -0.123500 0.525000
v -0.524875 -0.123500 0.675000
v -0.524875 -0.123500 0.825000
v -0.524875 -0.123500 0.975000
v -0.524875 -0.123500 1.125000
v -0.957125 -0.123500 1.275000
v -0.957125 -0.123500 1.425000
v -0.957125 -0.123500 1.575000
v -0.957125 -0.123500 1.725000
v -0.957125 -0.123500 1.875000
v -0.895375 -0.123500 1.275000
v -0.895375 -0.123500 1.425000
v -0.895375 -0.123500 1.575000
v -0.895375 -0.123500 1.725000
v -0.895375 -0.123500 1.875000
v -0.833625 -0.123500 1.275000
v -0.833625 -0.123500 1.425000
v -0.833625 -0.123500 1.575000
v -0.833625 -0.123500 1.725000
v -0.833625 -0.123500 1.875000
v -0.771875 -0.123500 1.275000
v -0.771875 -0.123500 1.425000
v -0.771875 -0.123500 1.575000
v -0.771875 -0.123500 1.725000
v -0.771875 -0.123500 1.875000
v -0.710125 -0.123500 1.275000
v -0.710125 -0.123500 1.425000
v -0.710125 -0.123500 1.575000
v -0.710125 -0.123500 1.725000
v -0.710125 -0.123500 1.875000
v -0.648375 -0.123500 1.275000
v -0.648375 -0.123500 1.425000
v -0.648375 -0.123500 1.575000
v -0.648375 -0.123500 1.725000
v -0.648375 -0.123500 1.875000
v -0.586625 -0.123500 1.275000
v -0.586625 -0.123500 1.425000
v -0.586625 -0.123500 1.575000
v -0.586625 -0.123500 1.725000
v -0.586625 -0.123500 1.875000
v -0.524875 -0.123500 1.275000
v -0.524875 -0.123500 1.425000
v -0.524875 -0.123500 1.575000
v -0.524875 -0.123500 1.725000
v -0.524875 -0.123500 1.875000
v -0.463125 -0.123500 0.075000
v -0.463125 -0.123500 0.225000
v -0.463125 -0.123500 0.375000
v -0.463125 -0.123500 0.525000
v -0.463125 -0.123500 0.675000
v -0.463125 -0.123500 0.825000
v -0.463125 -0.123500 0.975000
v -0.463125 -0.123500 1.125000
v -0.401375 -0.123500 0.075000
v -0.401375 -0.123500 0.225000
v -0.401375 -0.123500 0.375000
v -0.401375 -0.123500 0.525000
v -0.401375 -0.123500 0.675000
v -0.401375 -0.123500 0.825000
v -0.401375 -0.123500 0.975000
v -0.401375 -0.123500 1.125000
v -0.339625 -0.123500 0.075000
v -0.339625 -0.123500 0.225000
v -0.339625 -0.123500 0.375000
v -0.339625 -0.123500 0.525000
v -0.339625 -0.123500 0.675000
v -0.339625 -0.123500 0.825000
v -0.339625 -0.123500 0.975000
v -0.339625 -0.123500 1.125000
v -0.277875 -0.123500 0.075000
v -0.277875 -0.123500 0.225000
v -0.277875 -0.123500 0.375000
v -0.277875 -0.123500 0.525000
v -0.277875 -0.123500 0.675000
v -0.277875 -0.123500 0.825000
v -0.277875 -0.123500 0.975000
v -0.277875 -0.123500 1.125000
v -0.216125 -0.123500 0.075000
v -0.216125 -0.123500 0.225000
v -0.216125 -0.123500 0.375000
v -0.216125 -0.123500 0.525000
v -0.216125 -0.123500 0.675000
v -0.216125 -0.123500 0.825000
v -0.216125 -0.123500 0.975000
v -0.216125 -0.123500 1.125000
v -0.154375 -0.123500 0.075000
v -0.154375 -0.123500 0.225000
v -0.154375 -0.123500 0.375000
v -0.154375 -0.123500 0.525000
v -0.154375 -0.123500 0.675000
v -0.154375 -0.123500 0.825000
v -0.154375 -0.123500 0.975000
v -0.154375 -0.123500 1.125000
v -0.092625 -0.123500 0.075000
v -0.092625 -0.123500 0.225000
v -0.092625 -0.123500 0.375000
v -0.092625 -0.123500 0.525000
v -0.092625 -0.123500 0.675000
v -0.092625 -0.123500 0.825000
v -0.092625 -0.123500 0.975000
v -0.092625 -0.123500 1.125000
v -0.030875 -0.123500 0.075000
v -0.030875 -0.123500 0.225000
v -0.030875 -0.123500 0.375000
v -0.030875 -0.123500 0.525000
v -0.030875 -0.123500 0.675000
v -0.030875 -0.123500 0.825000
v -0.030875 -0.123500 0.975000
v -0.030875 -0.123500 1.125000
v -0.463125 -0.123500 1.275000
v -0.463125 -0.123500 1.425000
v -0.463125 -0.123500 1.575000
v -0.463125 -0.123500 1.725000
v -0.463125 -0.123500 1.875000
v -0.401375 -0.123500 1.275000
v -0.401375 -0.123500 1.425000
v -0.401375 -0.123500 1.575000
v -0.401375 -0.123500 1.725000
v -0.401375 -0.123500 1.875000
v -0.339625 -0.123500 1.275000
v -0.339625 -0.123500 1.425000
v -0.339625 -0.123500 1.575000
v -0.339625 -0.123500 1.725000
v -0.339625 -0.123500 1.875000
v -0.277875 -0.123500 1.275000
v -0.277875 -0.123500 1.425000
v -0.277875 -0.123500 1.575000
v -0.277875 -0.123500 1.725000
v -0.277875 -0.123500 1.875000
v -0.216125 -0.123500 1.275000
v -0.216125 -0.123500 1.425000
v -0.216125 -0.123500 1.575000
v -0.216125 -0.123500 1.725000
v -0.216125 -0.123500 1.875000
v -0.154375 -0.123500 1.275000
v -0.154375 -0.123500 1.425000
v -0.154375 -0.123500 1.575000
v -0.154375 -0.123500 1.725000
v -0.154375 -0.123500 1.875000
v -0.092625 -0.123500 1.275000
v -0.092625 -0.123500 1.425000
v -0.092625 -0.123500 1.575000
v -0.092625 -0.123500 1.725000
v -0.092625 -0.123500 1.875000
v -0.030875 -0.123500 1.275000
v -0.030875 -0.123500 1.425000
v -0.030875 -0.123500 1.575000
v -0.030875 -0.123500 1.725000
v -0.030875 -0.123500 1.875000
v -2.470000 0.030875 0.075000
v -2.470000 0.030875 0.225000
v -2.470000 0.030875 0.375000
v -2.470000 0.030875 0.525000
v -2.470000 0.030875 0.675000
v -2.470000 0.030875 0.825000
v -2.470000 0.030875 0.975000
v -2.470000 0.030875 1.125000
v -2.470000 0.090515 0.075000
v -2.470000 0.090515 0.225000
v -2.470000 0.090515 0.375000
v -2.470000 0.090515 0.525000
v -2.470000 0.090515 0.675000
v -2.470000 0.090515 0.825000
v -2.470000 0.090515 0.975000
v -2.470000 0.090515 1.125000
v -2.470000 0.123500 0.075000
v -2.470000 0.123500 0.225000
v -2.470000 0.123500 0.375000
v -2.470000 0.123500 0.525000
v -2.470000 0.123500 0.675000
v -2.470000 0.123500 0.825000
v -2.470000 0.123500 0.975000
v -2.470000 0.123500 1.125000
v -2.470000 0.030874 1.274996
v -2.470000 0.030869 1.424988
v -2.470000 0.030858 1.574980
v -2.470000 0.030658 1.723163
v -2.470000 0.030438 1.869479
v -2.459089 0.029820 1.951289
v -2.470000 0.090514 1.274990
v -2.469911 0.090502 1.424969
v -2.469824 0.090488 1.574944
v -2.469590 0.090451 1.722496
v -2.469501 0.089636 1.872360
v -2.454455 0.067624 1.939260
v -2.470000 0.123500 1.274989
v -2.469911 0.123411 1.424967
v -2.469731 0.123234 1.574939
v -2.469417 0.123016 1.722937
v -2.469102 0.122858 1.827391
v -2.437015 0.123500 0.075000
v -2.437015 0.123500 0.225000
v -2.437015 0.123500 0.375000
v -2.437015 0.123500 0.525000
v -2.437015 0.123500 0.675000
v -2.437015 0.123500 0.825000
v -2.437015 0.123500 0.975000
v -2.437015 0.123500 1.125000
v -2.377375 0.123500 0.075000
v -2.377375 0.123500 0.225000
v -2.377375 0.123500 0.375000
v -2.377375 0.123500 0.525000
v -2.377375 0.123500 0.675000
v -2.377375 0.123500 0.825000
v -2.377375 0.123500 0.975000
v -2.377375 0.123500 1.125000
v -2.315625 0.123500 0.075000
v -2.315625 0.123500 0.225000
v -2.315625 0.123500 0.375000
v -2.315625 0.123500 0.525000
v -2.315625 0.123500 0.675000
v -2.315625 0.123500 0.825000
v -2.315625 0.123500 0.975000
v -2.315625 0.123500 1.125000
v -2.253875 0.123500 0.075000
v -2.253875 0.123500 0.225000
v -2.253875 0.123500 0.375000
v -2.253875 0.123500 0.525000
v -2.253875 0.123500 0.675000
v -2.253875 0.123500 0.825000
v -2.253875 0.123500 0.975000
v -2.253875 0.123500 1.125000
v -2.192125 0.123500 0.075000
v -2.192125 0.123500 0.225000
v -2.192125 0.123500 0.375000
v -2.192125 0.123500 0.525000
v -2.192125 0.123500 0.675000
v -2.192125 0.123500 0.825000
v -2.192125 0.123500 0.975000
v -2.192125 0.123500 1.125000
v -2.130375 0.123500 0.075000
v -2.130375 0.123500 0.225000
v -2.130375 0.123500 0.375000
v -2.130375 0.123500 0.525000
v -2.130375 0.123500 0.675000
v -2.130375 0.123500 0.825000
v -2.130375 0.123500 0.975000
v -2.130375 0.123500 1.125000
v -2.068625 0.123500 0.075000
v -2.068625 0.123500 0.225000
v -2.068625 0.123500 0.375000
v -2.068625 0.123500 0.525000
v -2.068625 0.123500 0.675000
v -2.068625 0.123500 0.825000
v -2.068625 0.123500 0.975000
v -2.068625 0.123500 1.125000
v -2.006875 0.123500 0.075000
v -2.006875 0.123500 0.225000
v -2.006875 0.123500 0.375000
v -2.006875 0.123500 0.525000
v -2.006875 0.123500 0.675000
v -2.006875 0.123500 0.825000
v -2.006875 0.123500 0.975000
v -2.006875 0.123500 1.125000
v -2.449557 0.102292 1.911359
v -2.428263 0.083049 1.985998
v -2.437014 0.123500 1.274991
v -2.437011 0.123500 1.424972
v -2.437004 0.123500 1.574948
v -2.436827 0.123500 1.723264
v -2.436936 0.123500 1.872580
v -2.377374 0.123500 1.274997
v -2.377369 0.123500 1.424991
v -2.377359 0.123500 1.574984
v -2.377083 0.123500 1.724346
v -2.376211 0.123500 1.872604
v -2.315625 0.123500 1.275000
v -2.315625 0.123500 1.425000
v -2.315625 0.123500 1.575000
v -2.315625 0.123500 1.725000
v -2.315450 0.123500 1.874564
v -2.253875 0.123500 1.275000
v -2.253875 0.123500 1.425000
v -2.253875 0.123500 1.575000
v -2.253875 0.123500 1.725000
v -2.253873 0.123500 1.874994
v -2.192125 0.123500 1.275000
v -2.192125 0.123500 1.425000
v -2.192125 0.123500 1.575000
v -2.192125 0.123500 1.725000
v -2.192125 0.123500 1.875000
v -2.130375 0.123500 1.275000
v -2.130375 0.123500 1.425000
v -2.130375 0.123500 1.575000
v -2.130375 0.123500 1.725000
v -2.130375 0.123500 1.875000
v -2.068625 0.123500 1.275000
v -2.068625 0.123500 1.425000
v -2.068625 0.123500 1.575000
v -2.068625 0.123500 1.725000
v -2.068625 0.123500 1.875000
v -2.006875 0.123500 1.275000
v -2.006875 0.123500 1.425000
v -2.006875 0.123500 1.575000
v -2.006875 0.123500 1.725000
v -2.006875 0.123500 1.875000
v -1.945125 0.123500 0.075000
v -1.945125 0.123500 0.225000
v -1.945125 0.123500 0.375000
v -1.945125 0.123500 0.525000
v -1.945125 0.123500 0.675000
v -1.945125 0.123500 0.825000
v -1.945125 0.123500 0.975000
v -1.945125 0.123500 1.125000
v -1.883375 0.123500 0.075000
v -1.883375 0.123500 0.225000
v -1.883375 0.123500 0.375000
v -1.883375 0.123500 0.525000
v -1.883375 0.123500 0.675000
v -1.883375 0.123500 0.825000
v -1.883375 0.123500 0.975000
v -1.883375 0.123500 1.125000
v -1.821625 0.123500 0.075000
v -1.821625 0.123500 0.225000
v -1.821625 0.123500 0.375000
v -1.821625 0.123500 0.525000
v -1.821625 0.123500 0.675000
v -1.821625 0.123500 0.825000
v -1.821625 0.123500 0.975000
v -1.821625 0.123500 1.125000
v -1.759875 0.123500 0.075000
v -1.759875 0.123500 0.225000
v -1.759875 0.123500 0.375000
v -1.759875 0.123500 0.525000
v -1.759875 0.123500 0.675000
v -1.759875 0.123500 0.825000
v -1.759875 0.123500 0.975000
v -1.759875 0.123500 1.125000
v -1.698125 0.123500 0.075000
v -1.698125 0.123500 0.225000
v -1.698125 0.123500 0.375000
v -1.698125 0.123500 0.525000
v -1.698125 0.123500 0.675000
v -1.698125 0.123500 0.825000
v -1.698125 0.123500 0.975000
v -1.698125 0.123500 1.125000
v -1.636375 0.123500 0.075000
v -1.636375 0.123500 0.225000
v -1.636375 0.123500 0.375000
v -1.636375 0.123500 0.525000
v -1.636375 0.123500 0.675000
v -1.636375 0.123500 0.825000
v -1.636375 0.123500 0.975000
v -1.636375 0.123500 1.125000
v -1.574625 0.123500 0.075000
v -1.574625 0.123500 0.225000
v -1.574625 0.123500 0.375000
v -1.574625 0.123500 0.525000
v -1.574625 0.123500 0.675000
v -1.574625 0.123500 0.825000
v -1.574625 0.123500 0.975000
v -1.574625 0.123500 1.125000
v -1.512875 0.123500 0.075000
v -1.512875 0.123500 0.225000
v -1.512875 0.123500 0.375000
v -1.512875 0.123500 0.525000
v -1.512875 0.123500 0.675000
v -1.512875 0.123500 0.825000
v -1.512875 0.123500 0.975000
v -1.512875 0.123500 1.125000
v -1.945125 0.123500 1.275000
v -1.945125 0.123500 1.425000
v -1.945125 0.123500 1.575000
v -1.945125 0.123500 1.725000
v -1.945125 0.123500 1.875000
v -1.883375 0.123500 1.275000
v -1.883375 0.123500 1.425000
v -1.883375 0.123500 1.575000
v -1.883375 0.123500 1.725000
v -1.883375 0.123500 1.875000
v -1.821625 0.123500 1.275000
v -1.821625 0.123500 1.425000
v -1.821625 0.123500 1.575000
v -1.821625 0.123500 1.725000
v -1.821625 0.123500 1.875000
v -1.759875 0.123500 1.275000
v -1.759875 0.123500 1.425000
v -1.759875 0.123500 1.575000
v -1.759875 0.123500 1.725000
v -1.759875 0.123500 1.875000
v -1.698125 0.123500 1.275000
v -1.698125 0.123500 1.425000
v -1.698125 0.123500 1.575000
v -1.698125 0.123500 1.725000
v -1.698125 0.123500 1.875000
v -1.636375 0.123500 1.275000
v -1.636375 0.123500 1.425000
v -1.636375 0.123500 1.575000
v -1.636375 0.123500 1.725000
v -1.636375 0.123500 1.875000
v -1.574625 0.123500 1.275000
v -1.574625 0.123500 1.425000
v -1.574625 0.123500 1.575000
v -1.574625 0.123500 1.725000
v -1.574625 0.123500 1.875000
v -1.512875 0.123500 1.275000
v -1.512875 0.123500 1.425000
v -1.512875 0.123500 1.575000
v -1.512875 0.123500 1.725000
v -1.512875 0.123500 1.875000
v -1.451125 0.123500 0.075000
v -1.451125 0.123500 0.225000
v -1.451125 0.123500 0.375000
v -1.451125 0.123500 0.525000
v -1.451125 0.123500 0.675000
v -1.451125 0.123500 0.825000
v -1.451125 0.123500 0.975000
v -1.451125 0.123500 1.125000
v -1.389375 0.123500 0.075000
v -1.389375 0.123500 0.225000
v -1.389375 0.123500 0.375000
v -1.389375 0.123500 0.525000
v -1.389375 0.123500 0.675000
v -1.389375 0.123500 0.825000
v -1.389375 0.123500 0.975000
v -1.389375 0.123500 1.125000
v -1.327625 0.123500 0.075000
v -1.327625 0.123500 0.225000
v -1.327625 0.123500 0.375000
v -1.327625 0.123500 0.525000
v -1.327625 0.123500 0.675000
v -1.327625 0.123500 0.825000
v -1.327625 0.123500 0.975000
v -1.327625 0.123500 1.125000
v -1.265875 0.123500 0.075000
v -1.265875 0.123500 0.225000
v -1.265875 0.123500 0.375000
v -1.265875 0.123500 0.525000
v -1.265875 0.123500 0.675000
v -1.265875 0.123500 0.825000
v -1.265875 0.123500 0.975000
v -1.265875 0.123500 1.125000
v -1.204125 0.123500 0.075000
v -1.204125 0.123500 0.225000
v -1.204125 0.123500 0.375000
v -1.204125 0.123500 0.525000
v -1.204125 0.123500 0.675000
v -1.204125 0.123500 0.825000
v -1.204125 0.123500 0.975000
v -1.204125 0.123500 1.125000
v -1.142375 0.123500 0.075000
v -1.142375 0.123500 0.225000
v -1.142375 0.123500 0.375000
v -1.142375 0.123500 0.525000
v -1.142375 0.123500 0.675000
v -1.142375 0.123500 0.825000
v -1.142375 0.123500 0.975000
v -1.142375 0.123500 1.125000
v -1.080625 0.123500 0.075000
v -1.080625 0.123500 0.225000
v -1.080625 0.123500 0.375000
v -1.080625 0.123500 0.525000
v -1.080625 0.123500 0.675000
v -1.080625 0.123500 0.825000
v -1.080625 0.123500 0.975000
v -1.080625 0.123500 1.125000
v -1.018875 0.123500 0.075000
v -1.018875 0.123500 0.225000
v -1.018875 0.123500 0.375000
v -1.018875 0.123500 0.525000
v -1.018875 0.123500 0.675000
v -1.018875 0.123500 0.825000
v -1.018875 0.123500 0.975000
v -1.018875 0.123500 1.125000
v -1.451125 0.123500 1.275000
v -1.451125 0.123500 1.425000
v -1.451125 0.123500 1.575000
v -1.451125 0.123500 1.725000
v -1.451125 0.123500 1.875000
v -1.389375 0.123500 1.275000
v -1.389375 0.123500 1.425000
v -1.389375 0.123500 1.575000
v -1.389375 0.123500 1.725000
v -1.389375 0.123500 1.875000
v -1.327625 0.123500 1.275000
v -1.327625 0.123500 1.425000
v -1.327625 0.123500 1.575000
v -1.327625 0.123500 1.725000
v -1.327625 0.123500 1.875000
v -1.265875 0.123500 1.275000
v -1.265875 0.123500 1.425000
v -1.265875 0.123500 1.575000
v -1.265875 0.123500 1.725000
v -1.265875 0.123500 1.875000
v -1.204125 0.123500 1.275000
v -1.204125 0.123500 1.425000
v -1.204125 0.123500 1.575000
v -1.204125 0.123500 1.725000
v -1.204125 0.123500 1.875000
v -1.142375 0.123500 1.275000
v -1.142375 0.123500 1.425000
v -1.142375 0.123500 1.575000
v -1.142375 0.123500 1.725000
v -1.142375 0.123500 1.875000
v -1.080625 0.123500 1.275000
v -1.080625 0.123500 1.425000
v -1.080625 0.123500 1.575000
v -1.080625 0.123500 1.725000
v -1.080625 0.123500 1.875000
v -1.018875 0.123500 1.275000
v -1.018875 0.123500 1.425000
v -1.018875 0.123500 1.575000
v -1.018875 0.123500 1.725000
v -1.018875 0.123500 1.875000
v -0.957125 0.123500 0.075000
v -0.957125 0.123500 0.225000
v -0.957125 0.123500 0.375000
v -0.957125 0.123500 0.525000
v -0.957125 0.123500 0.675000
v -0.957125 0.123500 0.825000
v -0.957125 0.123500 0.975000
v -0.957125 0.123500 1.125000
v -0.895375 0.123500 0.075000
v -0.895375 0.123500 0.225000
v -0.895375 0.123500 0.375000
v -0.895375 0.123500 0.525000
v -0.895375 0.123500 0.675000
v -0.895375 0.123500 0.825000
v -0.895375 0.123500 0.975000
v -0.895375 0.123500 1.125000
v -0.833625 0.123500 0.075000
v -0.833625 0.123500 0.225000
v -0.833625 0.123500 0.375000
v -0.833625 0.123500 0.525000
v -0.833625 0.123500 0.675000
v -0.833625 0.123500 0.825000
v -0.833625 0.123500 0.975000
v -0.833625 0.123500 1.125000
v -0.771875 0.123500 0.075000
v -0.771875 0.123500 0.225000
v -0.771875 0.123500 0.375000
v -0.771875 0.123500 0.525000
v -0.771875 0.123500 0.675000
v -0.771875 0.123500 0.825000
v -0.771875 0.123500 0.975000
v -0.771875 0.123500 1.125000
v -0.710125 0.123500 0.075000
v -0.710125 0.123500 0.225000
v -0.710125 0.123500 0.375000
v -0.710125 0.123500 0.525000
v -0.710125 0.123500 0.675000
v -0.710125 0.123500 0.825000
v -0.710125 0.123500 0.975000
v -0.710125 0.123500 1.125000
v -0.648375 0.123500 0.075000
v -0.648375 0.123500 0.225000
v -0.648375 0.123500 0.375000
v -0.648375 0.123500 0.525000
v -0.648375 0.123500 0.675000
v -0.648375 0.123500 0.825000
v -0.648375 0.123500 0.975000
v -0.648375 0.123500 1.125000
v -0.586625 0.123500 0.075000
v -0.586625 0.123500 0.225000
v -0.586625 0.123500 0.375000
v -0.586625 0.123500 0.525000
v -0.586625 0.123500 0.675000
v -0.586625 0.123500 0.825000
v -0.586625 0.123500 0.975000
v -0.586625 0.123500 1.125000
v -0.524875 0.123500 0.075000
v -0.524875 0.123500 0.225000
v -0.524875 0.123500 0.375000
v -0.524875 0.123500 0.525000
v -0.524875 0.123500 0.675000
v -0.524875 0.123500 0.825000
v -0.524875 0.123500 0.975000
v -0.524875 0.123500 1.125000
v -0.957125 0.123500 1.275000
v -0.957125 0.123500 1.425000
v -0.957125 0.123500 1.575000
v -0.957125 0.123500 1.725000
v -0.957125 0.123500 1.875000
v -0.895375 0.123500 1.275000
v -0.895375 0.123500 1.425000
v -0.895375 0.123500 1.575000
v -0.895375 0.123500 1.725000
v -0.895375 0.123500 1.875000
v -0.833625 0.123500 1.275000
v -0.833625 0.123500 1.425000
v -0.833625 0.123500 1.575000
v -0.833625 0.123500 1.725000
v -0.833625 0.123500 1.875000
v -0.771875 0.123500 1.275000
v -0.771875 0.123500 1.425000
v -0.771875 0.123500 1.575000
v -0.771875 0.123500 1.725000
v -0.771875 0.123500 1.875000
v -0.710125 0.123500 1.275000
v -0.710125 0.123500 1.425000
v -0.710125 0.123500 1.575000
v -0.710125 0.123500 1.725000
v -0.710125 0.123500 1.875000
v -0.648375 0.123500 1.275000
v -0.648375 0.123500 1.425000
v -0.648375 0.123500 1.575000
v -0.648375 0.123500 1.725000
v -0.648375 0.123500 1.875000
v -0.586625 0.123500 1.275000
v -0.586625 0.123500 1.425000
v -0.586625 0.123500 1.575000
v -0.586625 0.123500 1.725000
v -0.586625 0.123500 1.875000
v -0.524875 0.123500 1.275000
v -0.524875 0.123500 1.425000
v -0.524875 0.123500 1.575000
v -0.524875 0.123500 1.725000
v -0.524875 0.123500 1.875000
v -0.463125 0.123500 0.075000
v -0.463125 0.123500 0.225000
v -0.463125 0.123500 0.375000
v -0.463125 0.123500 0.525000
v -0.463125 0.123500 0.675000
v -0.463125 0.123500 0.825000
v -0.463125 0.123500 0.975000
v -0.463125 0.123500 1.125000
v -0.401375 0.123500 0.075000
v -0.401375 0.123500 0.225000
v -0.401375 0.123500 0.375000
v -0.401375 0.123500 0.525000
v -0.401375 0.123500 0.675000
v -0.401375 0.123500 0.825000
v -0.401375 0.123500 0.975000
v -0.401375 0.123500 1.125000
v -0.339625 0.123500 0.075000
v -0.339625 0.123500 0.225000
v -0.339625 0.123500 0.375000
v -0.339625 0.123500 0.525000
v -0.339625 0.123500 0.675000
v -0.339625 0.123500 0.825000
v -0.339625 0.123500 0.975000
v -0.339625 0.123500 1.125000
v -0.277875 0.123500 0.075000
v -0.277875 0.123500 0.225000
v -0.277875 0.123500 0.375000
v -0.277875 0.123500 0.525000
v -0.277875 0.123500 0.675000
v -0.277875 0.123500 0.825000
v -0.277875 0.123500 0.975000
v -0.277875 0.123500 1.125000
v -0.216125 0.123500 0.075000
v -0.216125 0.123500 0.225000
v -0.216125 0.123500 0.375000
v -0.216125 0.123500 0.525000
v -0.216125 0.123500 0.675000
v -0.216125 0.123500 0.825000
v -0.216125 0.123500 0.975000
v -0.216125 0.123500 1.125000
v -0.154375 0.123500 0.075000
v -0.154375 0.123500 0.225000
v -0.154375 0.123500 0.375000
v -0.154375 0.123500 0.525000
v -0.154375 0.123500 0.675000
v -0.154375 0.123500 0.825000
v -0.154375 0.123500 0.975000
v -0.154375 0.123500 1.125000
v -0.092625 0.123500 0.075000
v -0.092625 0.123500 0.225000
v -0.092625 0.123500 0.375000
v -0.092625 0.123500 0.525000
v -0.092625 0.123500 0.675000
v -0.092625 0.123500 0.825000
v -0.092625 0.123500 0.975000
v -0.092625 0.123500 1.125000
v -0.030875 0.123500 0.075000
v -0.030875 0.123500 0.225000
v -0.030875 0.123500 0.375000
v -0.030875 0.123500 0.525000
v -0.030875 0.123500 0.675000
v -0.030875 0.123500 0.825000
v -0.030875 0.123500 0.975000
v -0.030875 0.123500 1.125000
v -0.463125 0.123500 1.275000
v -0.463125 0.123500 1.425000
v -0.463125 0.123500 1.575000
v -0.463125 0.123500 1.725000
v -0.463125 0.123500 1.875000
v -0.401375 0.123500 1.275000
v -0.401375 0.123500 1.425000
v -0.401375 0.123500 1.575000
v -0.401375 0.123500 1.725000
v -0.401375 0.123500 1.875000
v -0.339625 0.123500 1.275000
v -0.339625 0.123500 1.425000
v -0.339625 0.123500 1.575000
v -0.339625 0.123500 1.725000
v -0.339625 0.123500 1.875000
v -0.277875 0.123500 1.275000
v -0.277875 0.123500 1.425000
v -0.277875 0.123500 1.575000
v -0.277875 0.123500 1.725000
v -0.277875 0.123500 1.875000
v -0.216125 0.123500 1.275000
v -0.216125 0.123500 1.425000
v -0.216125 0.123500 1.575000
v -0.216125 0.123500 1.725000
v -0.216125 0.123500 1.875000
v -0.154375 0.123500 1.275000
v -0.154375 0.123500 1.425000
v -0.154375 0.123500 1.575000
v -0.154375 0.123500 1.725000
v -0.154375 0.123500 1.875000
v -0.092625 0.123500 1.275000
v -0.092625 0.123500 1.425000
v -0.092625 0.123500 1.575000
v -0.092625 0.123500 1.725000
v -0.092625 0.123500 1.875000
v -0.030875 0.123500 1.275000
v -0.030875 0.123500 1.425000
v -0.030875 0.123500 1.575000
v -0.030875 0.123500 1.725000
v -0.030875 0.123500 1.875000
v -0.025876 -0.123500 0.225000
v -0.025876 -0.123500 1.425000
v -0.025876 0.123500 0.375000
v -0.025876 0.123500 1.575000
v -0.025876 -0.123500 0.375000
v -0.025876 -0.123500 1.575000
v -0.025876 0.123500 0.525000
v -0.025876 0.123500 1.725000
v -0.025876 -0.123500 0.525000
v -0.025876 -0.123500 1.725000
v -0.025876 0.123500 0.675000
v -0.025876 0.123500 1.875000
v -0.025876 -0.123500 0.675000
v -0.025876 -0.123500 1.875000
v -0.025876 0.123500 0.825000
v -0.025876 -0.123500 0.825000
v -0.025876 0.123500 0.975000
v -0.025876 -0.123500 0.975000
v -0.025876 0.123500 1.125000
v -0.025876 -0.123500 1.125000
v -0.025876 0.123500 0.075000
v -0.025876 0.123500 1.275000
v -0.025876 -0.123500 0.075000
v -0.025876 -0.123500 1.275000
v -0.025876 0.123500 0.225000
v -0.025876 0.123500 1.425000
v -0.463125 -0.123500 0.014739
v -0.401375 -0.123500 0.015027
v -0.339625 -0.123500 0.015316
v -0.277875 -0.123500 0.015605
v -0.216125 -0.123500 0.015893
v -0.154375 -0.123500 0.016182
v -0.092625 -0.123500 0.016470
v -0.030875 -0.123500 0.016759
v -1.451125 0.123500 0.010122
v -1.389375 0.123500 0.010411
v -1.327625 0.123500 0.010699
v -1.265875 0.123500 0.010988
v -1.204125 0.123500 0.011276
v -1.142375 0.123500 0.011565
v -1.080625 0.123500 0.011853
v -1.018875 0.123500 0.012142
v -1.451125 -0.123500 0.010122
v -1.389375 -0.123500 0.010411
v -1.327625 -0.123500 0.010699
v -1.265875 -0.123500 0.010988
v -1.204125 -0.123500 0.011276
v -1.142375 -0.123500 0.011565
v -1.080625 -0.123500 0.011853
v -1.018875 -0.123500 0.012142
v -0.957125 0.123500 0.012430
v -0.895375 0.123500 0.012719
v -0.833625 0.123500 0.013008
v -0.771875 0.123500 0.013296
v -0.710125 0.123500 0.013585
v -0.648375 0.123500 0.013873
v -0.586625 0.123500 0.014162
v -0.524875 0.123500 0.014450
v -0.957125 -0.123500 0.012430
v -0.895375 -0.123500 0.012719
v -0.833625 -0.123500 0.013008
v -0.771875 -0.123500 0.013296
v -0.710125 -0.123500 0.013585
v -0.648375 -0.123500 0.013873
v -0.586625 -0.123500 0.014162
v -0.524875 -0.123500 0.014450
v -1.945125 0.123500 0.007814
v -1.883375 0.123500 0.008102
v -1.821625 0.123500 0.008391
v -1.759875 0.123500 0.008679
v -1.698125 0.123500 0.008968
v -1.636375 0.123500 0.009256
v -1.574625 0.123500 0.009545
v -1.512875 0.123500 0.009833
v -1.945125 -0.123500 0.007814
v -1.883375 -0.123500 0.008102
v -1.821625 -0.123500 0.008391
v -1.759875 -0.123500 0.008679
v -1.698125 -0.123500 0.008968
v -1.636375 -0.123500 0.009256
v -1.574625 -0.123500 0.009545
v -1.512875 -0.123500 0.009833
v -2.437015 -0.123500 0.005515
v -2.377375 -0.123500 0.005794
v -2.315625 -0.123500 0.006082
v -2.253875 -0.123500 0.006371
v -2.192125 -0.123500 0.006659
v -2.130375 -0.123500 0.006948
v -2.068625 -0.123500 0.007237
v -2.006875 -0.123500 0.007525
v -2.437015 0.123500 0.005515
v -2.377375 0.123500 0.005794
v -2.315625 0.123500 0.006082
v -2.253875 0.123500 0.006371
v -2.192125 0.123500 0.006659
v -2.130375 0.123500 0.006948
v -2.068625 0.123500 0.007237
v -2.006875 0.123500 0.007525
v -2.470000 0.030875 0.005361
v -2.470000 0.090515 0.005361
v -2.470000 0.123500 0.005361
v -2.470000 -0.090515 0.005361
v -2.470000 -0.123500 0.005361
v -2.470000 -0.030875 0.005361
v -0.463125 0.123500 0.014739
v -0.401375 0.123500 0.015027
v -0.339625 0.123500 0.015316
v -0.277875 0.123500 0.015605
v -0.216125 0.123500 0.015893
v -0.154375 0.123500 0.016182
v -0.092625 0.123500 0.016470
v -0.030875 0.123500 0.016759
v -0.025876 0.123500 0.016782
v -0.025876 -0.123500 0.016782
v -2.426784 -0.088939 1.987230
v -2.253873 -0.123500 1.987231
v -2.192125 -0.123500 1.987231
v -2.130375 -0.123500 1.987230
v -2.068625 -0.123500 1.987230
v -2.006875 -0.123500 1.987230
v -1.945125 0.123500 1.987230
v -1.883375 0.123500 1.987230
v -1.821625 0.123500 1.987230
v -1.759875 0.123500 1.987230
v -1.698125 0.123500 1.987230
v -1.636375 0.123500 1.987230
v -1.574625 0.123500 1.987230
v -1.512875 0.123500 1.987230
v -2.449129 -0.029619 1.987231
v -2.378271 -0.123473 1.987231
v -1.945125 -0.123500 1.987230
v -1.883375 -0.123500 1.987230
v -1.821625 -0.123500 1.987230
v -1.759875 -0.123500 1.987230
v -1.698125 -0.123500 1.987230
v -1.636375 -0.123500 1.987230
v -1.574625 -0.123500 1.987230
v -1.512875 -0.123500 1.987230
v -2.428694 0.081096 1.987231
v -2.411926 0.111291 1.987230
v -0.957125 0.123500 1.987230
v -0.895375 0.123500 1.987230
v -0.833625 0.123500 1.987230
v -0.771875 0.123500 1.987230
v -0.710125 0.123500 1.987230
v -0.648375 0.123500 1.987230
v -0.586625 0.123500 1.987230
v -0.524875 0.123500 1.987230
v -0.463125 0.123500 1.987230
v -0.401375 0.123500 1.987230
v -0.339625 0.123500 1.987230
v -0.277875 0.123500 1.987230
v -0.216125 0.123500 1.987230
v -0.154375 0.123500 1.987230
v -0.092625 0.123500 1.987230
v -0.030875 0.123500 1.987230
v -2.429024 -0.084215 1.987230
v -0.957125 -0.123500 1.987230
v -0.895375 -0.123500 1.987230
v -0.833625 -0.123500 1.987230
v -0.771875 -0.123500 1.987230
v -0.710125 -0.123500 1.987230
v -0.648375 -0.123500 1.987230
v -0.586625 -0.123500 1.987230
v -0.524875 -0.123500 1.987230
v -0.463125 -0.123500 1.987230
v -0.401375 -0.123500 1.987230
v -0.339625 -0.123500 1.987230
v -0.277875 -0.123500 1.987230
v -0.216125 -0.123500 1.987230
v -0.154375 -0.123500 1.987230
v -0.092625 -0.123500 1.987230
v -0.030875 -0.123500 1.987230
v -2.428025 0.083107 1.987231
v -2.427072 0.084546 1.987231
v -2.449129 0.029627 1.987231
v -2.375500 0.123401 1.987231
v -2.314893 -0.123500 1.987231
v -1.451125 0.123500 1.987230
v -1.389375 0.123500 1.987230
v -1.327625 0.123500 1.987230
v -1.265875 0.123500 1.987230
v -1.204125 0.123500 1.987230
v -1.142375 0.123500 1.987230
v -1.080625 0.123500 1.987230
v -1.018875 0.123500 1.987230
v -2.419688 -0.094421 1.987230
v -2.405926 -0.110458 1.987230
v -1.451125 -0.123500 1.987230
v -1.389375 -0.123500 1.987230
v -1.327625 -0.123500 1.987230
v -1.265875 -0.123500 1.987230
v -1.204125 -0.123500 1.987230
v -1.142375 -0.123500 1.987230
v -1.080625 -0.123500 1.987230
v -1.018875 -0.123500 1.987230
v -2.314982 0.123394 1.987230
v -2.253855 0.123500 1.987230
v -2.192122 0.123500 1.987231
v -2.130375 0.123500 1.987230
v -2.068625 0.123500 1.987230
v -2.006875 0.123500 1.987230
v -0.025876 -0.123500 1.987230
v -0.025876 0.123500 1.987230
vn 0.0047 -0.0000 -1.0000
vn -1.0000 -0.0000 -0.0000
vn -1.0000 -0.0014 0.0003
vn -1.0000 -0.0040 0.0009
vn -1.0000 -0.0088 0.0013
vn -0.9999 -0.0146 0.0024
vn -1.0000 -0.0008 0.0003
vn -1.0000 -0.0022 0.0003
vn -1.0000 -0.0053 0.0010
vn -0.9892 -0.0126 0.1463
vn -0.0000 -1.0000 -0.0000
vn -0.0014 -1.0000 0.0003
vn -0.0054 -1.0000 0.0006
vn -0.0115 -0.9999 0.0008
vn -0.0186 -0.9998 0.0006
vn -0.6995 -0.6727 0.2412
vn -0.4106 -0.8565 0.3129
vn -0.8758 -0.3340 0.3486
vn -0.8869 -0.2227 0.4047
vn -0.1881 -0.9777 0.0932
vn -0.7326 -0.6286 0.2611
vn -0.0002 -1.0000 0.0001
vn -0.0000 -0.0000 1.0000
vn -0.9912 0.0001 0.1321
vn -1.0000 0.0007 0.0003
vn -1.0000 0.0022 0.0003
vn -1.0000 0.0049 0.0008
vn -1.0000 0.0076 0.0003
vn -0.9809 0.0690 0.1817
vn -1.0000 -0.0000 0.0006
vn -1.0000 0.0014 0.0009
vn -1.0000 0.0041 0.0019
vn -1.0000 0.0098 0.0016
vn -0.0000 1.0000 -0.0000
vn -0.9637 -0.0000 0.2671
vn -0.8581 0.3900 0.3340
vn -0.9359 0.3110 0.1656
vn -0.0013 1.0000 0.0003
vn -0.0054 1.0000 0.0006
vn -0.0115 0.9999 0.0008
vn -0.0179 0.9998 0.0006
vn -0.6840 0.6557 0.3198
vn -0.7203 0.6340 0.2812
vn -0.8262 0.5474 0.1334
vn -0.1234 0.9901 0.0670
vn -0.0000 1.0000 0.0009
vn -0.0009 1.0000 0.0005
vn 1.0000 -0.0000 -0.0000
vn -0.8936 0.2995 0.3343
s 0
f 1181//1 1182//1 1183//1 1184//1 1231//1 1232//1 1233//1 1234//1 1235//1 1236//1 1237//1 1238//1 1239//1 1240//1 1160//1 1159//1 1158//1 1157//1 1156//1 1155//1 1154//1 1153//1 1192//1 1191//1 1190//1 1189//1 1188//1 1187//1 1186//1 1185//1 1176//1 1175//1 1174//1 1173//1 1172//1 1171//1 1170//1 1169//1 1208//1 1207//1 1206//1 1205//1 1204//1 1203//1 1202//1 1201//1 1216//1 1215//1 1214//1 1213//1 1212//1 1211//1 1210//1 1209//1 1229//1 1228//1 1230//1 1225//1 1226//1 1227//1 1217//1 1218//1 1219//1 1220//1 1221//1 1222//1 1223//1 1224//1 1193//1 1194//1 1195//1 1196//1 1197//1 1198//1 1199//1 1200//1 1161//1 1162//1 1163//1 1164//1 1165//1 1166//1 1167//1 1168//1 1177//1 1178//1 1179//1 1180//1
f 10//2 9//2 1//2 2//2
f 11//2 10//2 2//2 3//2
f 12//2 11//2 3//2 4//2
f 13//2 12//2 4//2 5//2
f 14//2 13//2 5//2 6//2
f 15//2 14//2 6//2 7//2
f 16//2 15//2 7//2 8//2
f 18//2 17//2 9//2 10//2
f 19//2 18//2 10//2 11//2
f 20//2 19//2 11//2 12//2
f 21//2 20//2 12//2 13//2
f 22//2 21//2 13//2 14//2
f 23//2 22//2 14//2 15//2
f 24//2 23//2 15//2 16//2
f 30//2 16//2 8//2 25//2
f 31//3 30//3 25//3 26//3
f 32//4 31//4 26//4 27//4
f 33//5 32//5 27//5 28//5
f 34//6 33//6 28//6 29//6
f 36//2 24//2 16//2 30//2
f 37//2 36//2 30//2 31//2
f 38//7 37//7 31//7 32//7
f 39//8 38//8 32//8 33//8
f 40//9 39//9 33//9 34//9
f 41//10 40//10 34//10 35//10
f 43//11 2//11 1//11 42//11
f 44//11 3//11 2//11 43//11
f 45//11 4//11 3//11 44//11
f 46//11 5//11 4//11 45//11
f 47//11 6//11 5//11 46//11
f 48//11 7//11 6//11 47//11
f 49//11 8//11 7//11 48//11
f 51//11 43//11 42//11 50//11
f 52//11 44//11 43//11 51//11
f 53//11 45//11 44//11 52//11
f 54//11 46//11 45//11 53//11
f 55//11 47//11 46//11 54//11
f 56//11 48//11 47//11 55//11
f 57//11 49//11 48//11 56//11
f 59//11 51//11 50//11 58//11
f 60//11 52//11 51//11 59//11
f 61//11 53//11 52//11 60//11
f 62//11 54//11 53//11 61//11
f 63//11 55//11 54//11 62//11
f 64//11 56//11 55//11 63//11
f 65//11 57//11 56//11 64//11
f 67//11 59//11 58//11 66//11
f 68//11 60//11 59//11 67//11
f 69//11 61//11 60//11 68//11
f 70//11 62//11 61//11 69//11
f 71//11 63//11 62//11 70//11
f 72//11 64//11 63//11 71//11
f 73//11 65//11 64//11 72//11
f 75//11 67//11 66//11 74//11
f 76//11 68//11 67//11 75//11
f 77//11 69//11 68//11 76//11
f 78//11 70//11 69//11 77//11
f 79//11 71//11 70//11 78//11
f 80//11 72//11 71//11 79//11
f 81//11 73//11 72//11 80//11
f 83//11 75//11 74//11 82//11
f 84//11 76//11 75//11 83//11
f 85//11 77//11 76//11 84//11
f 86//11 78//11 77//11 85//11
f 87//11 79//11 78//11 86//11
f 88//11 80//11 79//11 87//11
f 89//11 81//11 80//11 88//11
f 91//11 83//11 82//11 90//11
f 92//11 84//11 83//11 91//11
f 93//11 85//11 84//11 92//11
f 94//11 86//11 85//11 93//11
f 95//11 87//11 86//11 94//11
f 96//11 88//11 87//11 95//11
f 97//11 89//11 88//11 96//11
f 99//11 91//11 90//11 98//11
f 100//11 92//11 91//11 99//11
f 101//11 93//11 92//11 100//11
f 102//11 94//11 93//11 101//11
f 103//11 95//11 94//11 102//11
f 104//11 96//11 95//11 103//11
f 105//11 97//11 96//11 104//11
f 106//11 25//11 8//11 49//11
f 107//12 26//12 25//12 106//12
f 108//13 27//13 26//13 107//13
f 109//14 28//14 27//14 108//14
f 110//15 29//15 28//15 109//15
f 112//16 34//16 29//16 110//16
f 1241//17 112//17 110//17 111//17 1313//17
f 1283//18 35//18 34//18 112//18 1241//18
f 1255//19 41//19 35//19 1283//19
f 113//11 106//11 49//11 57//11
f 114//11 107//11 106//11 113//11
f 115//11 108//11 107//11 114//11
f 116//11 109//11 108//11 115//11
f 117//11 110//11 109//11 116//11
f 1314//20 111//20 110//20 117//20 1256//20
f 1314//21 1313//21 111//21
f 118//11 113//11 57//11 65//11
f 119//11 114//11 113//11 118//11
f 120//11 115//11 114//11 119//11
f 121//11 116//11 115//11 120//11
f 122//11 117//11 116//11 121//11
f 1304//22 1256//22 117//22 122//22
f 123//11 118//11 65//11 73//11
f 124//11 119//11 118//11 123//11
f 125//11 120//11 119//11 124//11
f 126//11 121//11 120//11 125//11
f 127//11 122//11 121//11 126//11
f 1242//11 1304//11 122//11 127//11
f 128//11 123//11 73//11 81//11
f 129//11 124//11 123//11 128//11
f 130//11 125//11 124//11 129//11
f 131//11 126//11 125//11 130//11
f 132//11 127//11 126//11 131//11
f 1243//11 1242//11 127//11 132//11
f 133//11 128//11 81//11 89//11
f 134//11 129//11 128//11 133//11
f 135//11 130//11 129//11 134//11
f 136//11 131//11 130//11 135//11
f 137//11 132//11 131//11 136//11
f 1244//11 1243//11 132//11 137//11
f 138//11 133//11 89//11 97//11
f 139//11 134//11 133//11 138//11
f 140//11 135//11 134//11 139//11
f 141//11 136//11 135//11 140//11
f 142//11 137//11 136//11 141//11
f 1245//11 1244//11 137//11 142//11
f 143//11 138//11 97//11 105//11
f 144//11 139//11 138//11 143//11
f 145//11 140//11 139//11 144//11
f 146//11 141//11 140//11 145//11
f 147//11 142//11 141//11 146//11
f 1246//11 1245//11 142//11 147//11
f 149//11 99//11 98//11 148//11
f 150//11 100//11 99//11 149//11
f 151//11 101//11 100//11 150//11
f 152//11 102//11 101//11 151//11
f 153//11 103//11 102//11 152//11
f 154//11 104//11 103//11 153//11
f 155//11 105//11 104//11 154//11
f 157//11 149//11 148//11 156//11
f 158//11 150//11 149//11 157//11
f 159//11 151//11 150//11 158//11
f 160//11 152//11 151//11 159//11
f 161//11 153//11 152//11 160//11
f 162//11 154//11 153//11 161//11
f 163//11 155//11 154//11 162//11
f 165//11 157//11 156//11 164//11
f 166//11 158//11 157//11 165//11
f 167//11 159//11 158//11 166//11
f 168//11 160//11 159//11 167//11
f 169//11 161//11 160//11 168//11
f 170//11 162//11 161//11 169//11
f 171//11 163//11 162//11 170//11
f 173//11 165//11 164//11 172//11
f 174//11 166//11 165//11 173//11
f 175//11 167//11 166//11 174//11
f 176//11 168//11 167//11 175//11
f 177//11 169//11 168//11 176//11
f 178//11 170//11 169//11 177//11
f 179//11 171//11 170//11 178//11
f 181//11 173//11 172//11 180//11
f 182//11 174//11 173//11 181//11
f 183//11 175//11 174//11 182//11
f 184//11 176//11 175//11 183//11
f 185//11 177//11 176//11 184//11
f 186//11 178//11 177//11 185//11
f 187//11 179//11 178//11 186//11
f 189//11 181//11 180//11 188//11
f 190//11 182//11 181//11 189//11
f 191//11 183//11 182//11 190//11
f 192//11 184//11 183//11 191//11
f 193//11 185//11 184//11 192//11
f 194//11 186//11 185//11 193//11
f 195//11 187//11 186//11 194//11
f 197//11 189//11 188//11 196//11
f 198//11 190//11 189//11 197//11
f 199//11 191//11 190//11 198//11
f 200//11 192//11 191//11 199//11
f 201//11 193//11 192//11 200//11
f 202//11 194//11 193//11 201//11
f 203//11 195//11 194//11 202//11
f 205//11 197//11 196//11 204//11
f 206//11 198//11 197//11 205//11
f 207//11 199//11 198//11 206//11
f 208//11 200//11 199//11 207//11
f 209//11 201//11 200//11 208//11
f 210//11 202//11 201//11 209//11
f 211//11 203//11 202//11 210//11
f 212//11 143//11 105//11 155//11
f 213//11 144//11 143//11 212//11
f 214//11 145//11 144//11 213//11
f 215//11 146//11 145//11 214//11
f 216//11 147//11 146//11 215//11
f 1257//11 1246//11 147//11 216//11
f 217//11 212//11 155//11 163//11
f 218//11 213//11 212//11 217//11
f 219//11 214//11 213//11 218//11
f 220//11 215//11 214//11 219//11
f 221//11 216//11 215//11 220//11
f 1258//11 1257//11 216//11 221//11
f 1277//23 1276//23 1275//23 1274//23 1273//23 1272//23 1271//23 1270//23 1269//23 1268//23 1267//23 1312//23 1311//23 1310//23 1309//23 1308//23 1307//23 1306//23 1305//23 1254//23 1253//23 1252//23 1251//23 1250//23 1249//23 1248//23 1247//23 1328//23 1327//23 1326//23 1325//23 1324//23 1323//23 1303//23 1266//23 1301//23 1300//23 1265//23 1302//23 1255//23 1283//23 1241//23 1313//23 1314//23 1256//23 1304//23 1242//23 1243//23 1244//23 1245//23 1246//23 1257//23 1258//23 1259//23 1260//23 1261//23 1262//23 1263//23 1264//23 1315//23 1316//23 1317//23 1318//23 1319//23 1320//23 1321//23 1322//23 1284//23 1285//23 1286//23 1287//23 1288//23 1289//23 1290//23 1291//23 1292//23 1293//23 1294//23 1295//23 1296//23 1297//23 1298//23 1299//23 1329//23 1330//23 1282//23 1281//23 1280//23 1279//23 1278//23
f 222//11 217//11 163//11 171//11
f 223//11 218//11 217//11 222//11
f 224//11 219//11 218//11 223//11
f 225//11 220//11 219//11 224//11
f 226//11 221//11 220//11 225//11
f 1259//11 1258//11 221//11 226//11
f 227//11 222//11 171//11 179//11
f 228//11 223//11 222//11 227//11
f 229//11 224//11 223//11 228//11
f 230//11 225//11 224//11 229//11
f 231//11 226//11 225//11 230//11
f 1260//11 1259//11 226//11 231//11
f 232//11 227//11 179//11 187//11
f 233//11 228//11 227//11 232//11
f 234//11 229//11 228//11 233//11
f 235//11 230//11 229//11 234//11
f 236//11 231//11 230//11 235//11
f 1261//11 1260//11 231//11 236//11
f 237//11 232//11 187//11 195//11
f 238//11 233//11 232//11 237//11
f 239//11 234//11 233//11 238//11
f 240//11 235//11 234//11 239//11
f 241//11 236//11 235//11 240//11
f 1262//11 1261//11 236//11 241//11
f 242//11 237//11 195//11 203//11
f 243//11 238//11 237//11 242//11
f 244//11 239//11 238//11 243//11
f 245//11 240//11 239//11 244//11
f 246//11 241//11 240//11 245//11
f 1263//11 1262//11 241//11 246//11
f 247//11 242//11 203//11 211//11
f 248//11 243//11 242//11 247//11
f 249//11 244//11 243//11 248//11
f 250//11 245//11 244//11 249//11
f 251//11 246//11 245//11 250//11
f 1264//11 1263//11 246//11 251//11
f 253//11 205//11 204//11 252//11
f 254//11 206//11 205//11 253//11
f 255//11 207//11 206//11 254//11
f 256//11 208//11 207//11 255//11
f 257//11 209//11 208//11 256//11
f 258//11 210//11 209//11 257//11
f 259//11 211//11 210//11 258//11
f 261//11 253//11 252//11 260//11
f 262//11 254//11 253//11 261//11
f 263//11 255//11 254//11 262//11
f 264//11 256//11 255//11 263//11
f 265//11 257//11 256//11 264//11
f 266//11 258//11 257//11 265//11
f 267//11 259//11 258//11 266//11
f 269//11 261//11 260//11 268//11
f 270//11 262//11 261//11 269//11
f 271//11 263//11 262//11 270//11
f 272//11 264//11 263//11 271//11
f 273//11 265//11 264//11 272//11
f 274//11 266//11 265//11 273//11
f 275//11 267//11 266//11 274//11
f 277//11 269//11 268//11 276//11
f 278//11 270//11 269//11 277//11
f 279//11 271//11 270//11 278//11
f 280//11 272//11 271//11 279//11
f 281//11 273//11 272//11 280//11
f 282//11 274//11 273//11 281//11
f 283//11 275//11 274//11 282//11
f 285//11 277//11 276//11 284//11
f 286//11 278//11 277//11 285//11
f 287//11 279//11 278//11 286//11
f 288//11 280//11 279//11 287//11
f 289//11 281//11 280//11 288//11
f 290//11 282//11 281//11 289//11
f 291//11 283//11 282//11 290//11
f 293//11 285//11 284//11 292//11
f 294//11 286//11 285//11 293//11
f 295//11 287//11 286//11 294//11
f 296//11 288//11 287//11 295//11
f 297//11 289//11 288//11 296//11
f 298//11 290//11 289//11 297//11
f 299//11 291//11 290//11 298//11
f 301//11 293//11 292//11 300//11
f 302//11 294//11 293//11 301//11
f 303//11 295//11 294//11 302//11
f 304//11 296//11 295//11 303//11
f 305//11 297//11 296//11 304//11
f 306//11 298//11 297//11 305//11
f 307//11 299//11 298//11 306//11
f 309//11 301//11 300//11 308//11
f 310//11 302//11 301//11 309//11
f 311//11 303//11 302//11 310//11
f 312//11 304//11 303//11 311//11
f 313//11 305//11 304//11 312//11
f 314//11 306//11 305//11 313//11
f 315//11 307//11 306//11 314//11
f 316//11 247//11 211//11 259//11
f 317//11 248//11 247//11 316//11
f 318//11 249//11 248//11 317//11
f 319//11 250//11 249//11 318//11
f 320//11 251//11 250//11 319//11
f 1315//11 1264//11 251//11 320//11
f 321//11 316//11 259//11 267//11
f 322//11 317//11 316//11 321//11
f 323//11 318//11 317//11 322//11
f 324//11 319//11 318//11 323//11
f 325//11 320//11 319//11 324//11
f 1316//11 1315//11 320//11 325//11
f 326//11 321//11 267//11 275//11
f 327//11 322//11 321//11 326//11
f 328//11 323//11 322//11 327//11
f 329//11 324//11 323//11 328//11
f 330//11 325//11 324//11 329//11
f 1317//11 1316//11 325//11 330//11
f 331//11 326//11 275//11 283//11
f 332//11 327//11 326//11 331//11
f 333//11 328//11 327//11 332//11
f 334//11 329//11 328//11 333//11
f 335//11 330//11 329//11 334//11
f 1318//11 1317//11 330//11 335//11
f 336//11 331//11 283//11 291//11
f 337//11 332//11 331//11 336//11
f 338//11 333//11 332//11 337//11
f 339//11 334//11 333//11 338//11
f 340//11 335//11 334//11 339//11
f 1319//11 1318//11 335//11 340//11
f 341//11 336//11 291//11 299//11
f 342//11 337//11 336//11 341//11
f 343//11 338//11 337//11 342//11
f 344//11 339//11 338//11 343//11
f 345//11 340//11 339//11 344//11
f 1320//11 1319//11 340//11 345//11
f 346//11 341//11 299//11 307//11
f 347//11 342//11 341//11 346//11
f 348//11 343//11 342//11 347//11
f 349//11 344//11 343//11 348//11
f 350//11 345//11 344//11 349//11
f 1321//11 1320//11 345//11 350//11
f 351//11 346//11 307//11 315//11
f 352//11 347//11 346//11 351//11
f 353//11 348//11 347//11 352//11
f 354//11 349//11 348//11 353//11
f 355//11 350//11 349//11 354//11
f 1322//11 1321//11 350//11 355//11
f 357//11 309//11 308//11 356//11
f 358//11 310//11 309//11 357//11
f 359//11 311//11 310//11 358//11
f 360//11 312//11 311//11 359//11
f 361//11 313//11 312//11 360//11
f 362//11 314//11 313//11 361//11
f 363//11 315//11 314//11 362//11
f 365//11 357//11 356//11 364//11
f 366//11 358//11 357//11 365//11
f 367//11 359//11 358//11 366//11
f 368//11 360//11 359//11 367//11
f 369//11 361//11 360//11 368//11
f 370//11 362//11 361//11 369//11
f 371//11 363//11 362//11 370//11
f 373//11 365//11 364//11 372//11
f 374//11 366//11 365//11 373//11
f 375//11 367//11 366//11 374//11
f 376//11 368//11 367//11 375//11
f 377//11 369//11 368//11 376//11
f 378//11 370//11 369//11 377//11
f 379//11 371//11 370//11 378//11
f 381//11 373//11 372//11 380//11
f 382//11 374//11 373//11 381//11
f 383//11 375//11 374//11 382//11
f 384//11 376//11 375//11 383//11
f 385//11 377//11 376//11 384//11
f 386//11 378//11 377//11 385//11
f 387//11 379//11 378//11 386//11
f 389//11 381//11 380//11 388//11
f 390//11 382//11 381//11 389//11
f 391//11 383//11 382//11 390//11
f 392//11 384//11 383//11 391//11
f 393//11 385//11 384//11 392//11
f 394//11 386//11 385//11 393//11
f 395//11 387//11 386//11 394//11
f 397//11 389//11 388//11 396//11
f 398//11 390//11 389//11 397//11
f 399//11 391//11 390//11 398//11
f 400//11 392//11 391//11 399//11
f 401//11 393//11 392//11 400//11
f 402//11 394//11 393//11 401//11
f 403//11 395//11 394//11 402//11
f 405//11 397//11 396//11 404//11
f 406//11 398//11 397//11 405//11
f 407//11 399//11 398//11 406//11
f 408//11 400//11 399//11 407//11
f 409//11 401//11 400//11 408//11
f 410//11 402//11 401//11 409//11
f 411//11 403//11 402//11 410//11
f 413//11 405//11 404//11 412//11
f 414//11 406//11 405//11 413//11
f 415//11 407//11 406//11 414//11
f 416//11 408//11 407//11 415//11
f 417//11 409//11 408//11 416//11
f 418//11 410//11 409//11 417//11
f 419//11 411//11 410//11 418//11
f 420//11 351//11 315//11 363//11
f 421//11 352//11 351//11 420//11
f 422//11 353//11 352//11 421//11
f 423//11 354//11 353//11 422//11
f 424//11 355//11 354//11 423//11
f 1284//11 1322//11 355//11 424//11
f 425//11 420//11 363//11 371//11
f 426//11 421//11 420//11 425//11
f 427//11 422//11 421//11 426//11
f 428//11 423//11 422//11 427//11
f 429//11 424//11 423//11 428//11
f 1285//11 1284//11 424//11 429//11
f 430//11 425//11 371//11 379//11
f 431//11 426//11 425//11 430//11
f 432//11 427//11 426//11 431//11
f 433//11 428//11 427//11 432//11
f 434//11 429//11 428//11 433//11
f 1286//11 1285//11 429//11 434//11
f 435//11 430//11 379//11 387//11
f 436//11 431//11 430//11 435//11
f 437//11 432//11 431//11 436//11
f 438//11 433//11 432//11 437//11
f 439//11 434//11 433//11 438//11
f 1287//11 1286//11 434//11 439//11
f 440//11 435//11 387//11 395//11
f 441//11 436//11 435//11 440//11
f 442//11 437//11 436//11 441//11
f 443//11 438//11 437//11 442//11
f 444//11 439//11 438//11 443//11
f 1288//11 1287//11 439//11 444//11
f 445//11 440//11 395//11 403//11
f 446//11 441//11 440//11 445//11
f 447//11 442//11 441//11 446//11
f 448//11 443//11 442//11 447//11
f 449//11 444//11 443//11 448//11
f 1289//11 1288//11 444//11 449//11
f 450//11 445//11 403//11 411//11
f 451//11 446//11 445//11 450//11
f 452//11 447//11 446//11 451//11
f 453//11 448//11 447//11 452//11
f 454//11 449//11 448//11 453//11
f 1290//11 1289//11 449//11 454//11
f 455//11 450//11 411//11 419//11
f 456//11 451//11 450//11 455//11
f 457//11 452//11 451//11 456//11
f 458//11 453//11 452//11 457//11
f 459//11 454//11 453//11 458//11
f 1291//11 1290//11 454//11 459//11
f 461//11 413//11 412//11 460//11
f 462//11 414//11 413//11 461//11
f 463//11 415//11 414//11 462//11
f 464//11 416//11 415//11 463//11
f 465//11 417//11 416//11 464//11
f 466//11 418//11 417//11 465//11
f 467//11 419//11 418//11 466//11
f 469//11 461//11 460//11 468//11
f 470//11 462//11 461//11 469//11
f 471//11 463//11 462//11 470//11
f 472//11 464//11 463//11 471//11
f 473//11 465//11 464//11 472//11
f 474//11 466//11 465//11 473//11
f 475//11 467//11 466//11 474//11
f 477//11 469//11 468//11 476//11
f 478//11 470//11 469//11 477//11
f 479//11 471//11 470//11 478//11
f 480//11 472//11 471//11 479//11
f 481//11 473//11 472//11 480//11
f 482//11 474//11 473//11 481//11
f 483//11 475//11 474//11 482//11
f 485//11 477//11 476//11 484//11
f 486//11 478//11 477//11 485//11
f 487//11 479//11 478//11 486//11
f 488//11 480//11 479//11 487//11
f 489//11 481//11 480//11 488//11
f 490//11 482//11 481//11 489//11
f 491//11 483//11 482//11 490//11
f 493//11 485//11 484//11 492//11
f 494//11 486//11 485//11 493//11
f 495//11 487//11 486//11 494//11
f 496//11 488//11 487//11 495//11
f 497//11 489//11 488//11 496//11
f 498//11 490//11 489//11 497//11
f 499//11 491//11 490//11 498//11
f 501//11 493//11 492//11 500//11
f 502//11 494//11 493//11 501//11
f 503//11 495//11 494//11 502//11
f 504//11 496//11 495//11 503//11
f 505//11 497//11 496//11 504//11
f 506//11 498//11 497//11 505//11
f 507//11 499//11 498//11 506//11
f 509//11 501//11 500//11 508//11
f 510//11 502//11 501//11 509//11
f 511//11 503//11 502//11 510//11
f 512//11 504//11 503//11 511//11
f 513//11 505//11 504//11 512//11
f 514//11 506//11 505//11 513//11
f 515//11 507//11 506//11 514//11
f 517//11 509//11 508//11 516//11
f 518//11 510//11 509//11 517//11
f 519//11 511//11 510//11 518//11
f 520//11 512//11 511//11 519//11
f 521//11 513//11 512//11 520//11
f 522//11 514//11 513//11 521//11
f 523//11 515//11 514//11 522//11
f 524//11 455//11 419//11 467//11
f 525//11 456//11 455//11 524//11
f 526//11 457//11 456//11 525//11
f 527//11 458//11 457//11 526//11
f 528//11 459//11 458//11 527//11
f 1292//11 1291//11 459//11 528//11
f 529//11 524//11 467//11 475//11
f 530//11 525//11 524//11 529//11
f 531//11 526//11 525//11 530//11
f 532//11 527//11 526//11 531//11
f 533//11 528//11 527//11 532//11
f 1293//11 1292//11 528//11 533//11
f 534//11 529//11 475//11 483//11
f 535//11 530//11 529//11 534//11
f 536//11 531//11 530//11 535//11
f 537//11 532//11 531//11 536//11
f 538//11 533//11 532//11 537//11
f 1294//11 1293//11 533//11 538//11
f 539//11 534//11 483//11 491//11
f 540//11 535//11 534//11 539//11
f 541//11 536//11 535//11 540//11
f 542//11 537//11 536//11 541//11
f 543//11 538//11 537//11 542//11
f 1295//11 1294//11 538//11 543//11
f 544//11 539//11 491//11 499//11
f 545//11 540//11 539//11 544//11
f 546//11 541//11 540//11 545//11
f 547//11 542//11 541//11 546//11
f 548//11 543//11 542//11 547//11
f 1296//11 1295//11 543//11 548//11
f 549//11 544//11 499//11 507//11
f 550//11 545//11 544//11 549//11
f 551//11 546//11 545//11 550//11
f 552//11 547//11 546//11 551//11
f 553//11 548//11 547//11 552//11
f 1297//11 1296//11 548//11 553//11
f 554//11 549//11 507//11 515//11
f 555//11 550//11 549//11 554//11
f 556//11 551//11 550//11 555//11
f 557//11 552//11 551//11 556//11
f 558//11 553//11 552//11 557//11
f 1298//11 1297//11 553//11 558//11
f 559//11 554//11 515//11 523//11
f 560//11 555//11 554//11 559//11
f 561//11 556//11 555//11 560//11
f 562//11 557//11 556//11 561//11
f 563//11 558//11 557//11 562//11
f 1299//11 1298//11 558//11 563//11
f 565//2 564//2 17//2 18//2
f 566//2 565//2 18//2 19//2
f 567//2 566//2 19//2 20//2
f 568//2 567//2 20//2 21//2
f 569//2 568//2 21//2 22//2
f 570//2 569//2 22//2 23//2
f 571//2 570//2 23//2 24//2
f 573//2 572//2 564//2 565//2
f 574//2 573//2 565//2 566//2
f 575//2 574//2 566//2 567//2
f 576//2 575//2 567//2 568//2
f 577//2 576//2 568//2 569//2
f 578//2 577//2 569//2 570//2
f 579//2 578//2 570//2 571//2
f 581//2 580//2 572//2 573//2
f 582//2 581//2 573//2 574//2
f 583//2 582//2 574//2 575//2
f 584//2 583//2 575//2 576//2
f 585//2 584//2 576//2 577//2
f 586//2 585//2 577//2 578//2
f 587//2 586//2 578//2 579//2
f 588//2 571//2 24//2 36//2
f 589//2 588//2 36//2 37//2
f 590//2 589//2 37//2 38//2
f 591//2 590//2 38//2 39//2
f 592//2 591//2 39//2 40//2
f 593//24 592//24 40//24 41//24
f 594//2 579//2 571//2 588//2
f 595//25 594//25 588//25 589//25
f 596//26 595//26 589//26 590//26
f 597//27 596//27 590//27 591//27
f 598//28 597//28 591//28 592//28
f 599//29 598//29 592//29 593//29
f 600//2 587//2 579//2 594//2
f 601//30 600//30 594//30 595//30
f 602//31 601//31 595//31 596//31
f 603//32 602//32 596//32 597//32
f 604//33 603//33 597//33 598//33
f 581//34 606//34 605//34 580//34
f 582//34 607//34 606//34 581//34
f 583//34 608//34 607//34 582//34
f 584//34 609//34 608//34 583//34
f 585//34 610//34 609//34 584//34
f 586//34 611//34 610//34 585//34
f 587//34 612//34 611//34 586//34
f 606//34 614//34 613//34 605//34
f 607//34 615//34 614//34 606//34
f 608//34 616//34 615//34 607//34
f 609//34 617//34 616//34 608//34
f 610//34 618//34 617//34 609//34
f 611//34 619//34 618//34 610//34
f 612//34 620//34 619//34 611//34
f 614//34 622//34 621//34 613//34
f 615//34 623//34 622//34 614//34
f 616//34 624//34 623//34 615//34
f 617//34 625//34 624//34 616//34
f 618//34 626//34 625//34 617//34
f 619//34 627//34 626//34 618//34
f 620//34 628//34 627//34 619//34
f 622//34 630//34 629//34 621//34
f 623//34 631//34 630//34 622//34
f 624//34 632//34 631//34 623//34
f 625//34 633//34 632//34 624//34
f 626//34 634//34 633//34 625//34
f 627//34 635//34 634//34 626//34
f 628//34 636//34 635//34 627//34
f 630//34 638//34 637//34 629//34
f 631//34 639//34 638//34 630//34
f 632//34 640//34 639//34 631//34
f 633//34 641//34 640//34 632//34
f 634//34 642//34 641//34 633//34
f 635//34 643//34 642//34 634//34
f 636//34 644//34 643//34 635//34
f 638//34 646//34 645//34 637//34
f 639//34 647//34 646//34 638//34
f 640//34 648//34 647//34 639//34
f 641//34 649//34 648//34 640//34
f 642//34 650//34 649//34 641//34
f 643//34 651//34 650//34 642//34
f 644//34 652//34 651//34 643//34
f 646//34 654//34 653//34 645//34
f 647//34 655//34 654//34 646//34
f 648//34 656//34 655//34 647//34
f 649//34 657//34 656//34 648//34
f 650//34 658//34 657//34 649//34
f 651//34 659//34 658//34 650//34
f 652//34 660//34 659//34 651//34
f 654//34 662//34 661//34 653//34
f 655//34 663//34 662//34 654//34
f 656//34 664//34 663//34 655//34
f 657//34 665//34 664//34 656//34
f 658//34 666//34 665//34 657//34
f 659//34 667//34 666//34 658//34
f 660//34 668//34 667//34 659//34
f 1302//35 593//35 41//35 1255//35
f 599//36 670//36 669//36 598//36
f 1300//37 670//37 1265//37
f 600//34 671//34 612//34 587//34
f 601//38 672//38 671//38 600//38
f 602//39 673//39 672//39 601//39
f 603//40 674//40 673//40 602//40
f 604//41 675//41 674//41 603//41
f 675//42 604//42 598//42 669//42
f 1266//43 675//43 669//43 670//43 1301//43
f 1300//44 1301//44 670//44
f 671//34 676//34 620//34 612//34
f 672//34 677//34 676//34 671//34
f 673//34 678//34 677//34 672//34
f 674//34 679//34 678//34 673//34
f 675//34 680//34 679//34 674//34
f 1266//45 1303//45 680//45 675//45
f 676//34 681//34 628//34 620//34
f 677//34 682//34 681//34 676//34
f 678//34 683//34 682//34 677//34
f 679//34 684//34 683//34 678//34
f 680//34 685//34 684//34 679//34
f 1303//46 1323//46 685//46 680//46
f 681//34 686//34 636//34 628//34
f 682//34 687//34 686//34 681//34
f 683//34 688//34 687//34 682//34
f 684//34 689//34 688//34 683//34
f 685//34 690//34 689//34 684//34
f 1323//47 1324//47 690//47 685//47
f 686//34 691//34 644//34 636//34
f 687//34 692//34 691//34 686//34
f 688//34 693//34 692//34 687//34
f 689//34 694//34 693//34 688//34
f 690//34 695//34 694//34 689//34
f 1324//34 1325//34 695//34 690//34
f 691//34 696//34 652//34 644//34
f 692//34 697//34 696//34 691//34
f 693//34 698//34 697//34 692//34
f 694//34 699//34 698//34 693//34
f 695//34 700//34 699//34 694//34
f 1325//34 1326//34 700//34 695//34
f 696//34 701//34 660//34 652//34
f 697//34 702//34 701//34 696//34
f 698//34 703//34 702//34 697//34
f 699//34 704//34 703//34 698//34
f 700//34 705//34 704//34 699//34
f 1326//34 1327//34 705//34 700//34
f 701//34 706//34 668//34 660//34
f 702//34 707//34 706//34 701//34
f 703//34 708//34 707//34 702//34
f 704//34 709//34 708//34 703//34
f 705//34 710//34 709//34 704//34
f 1327//34 1328//34 710//34 705//34
f 662//34 712//34 711//34 661//34
f 663//34 713//34 712//34 662//34
f 664//34 714//34 713//34 663//34
f 665//34 715//34 714//34 664//34
f 666//34 716//34 715//34 665//34
f 667//34 717//34 716//34 666//34
f 668//34 718//34 717//34 667//34
f 712//34 720//34 719//34 711//34
f 713//34 721//34 720//34 712//34
f 714//34 722//34 721//34 713//34
f 715//34 723//34 722//34 714//34
f 716//34 724//34 723//34 715//34
f 717//34 725//34 724//34 716//34
f 718//34 726//34 725//34 717//34
f 720//34 728//34 727//34 719//34
f 721//34 729//34 728//34 720//34
f 722//34 730//34 729//34 721//34
f 723//34 731//34 730//34 722//34
f 724//34 732//34 731//34 723//34
f 725//34 733//34 732//34 724//34
f 726//34 734//34 733//34 725//34
f 728//34 736//34 735//34 727//34
f 729//34 737//34 736//34 728//34
f 730//34 738//34 737//34 729//34
f 731//34 739//34 738//34 730//34
f 732//34 740//34 739//34 731//34
f 733//34 741//34 740//34 732//34
f 734//34 742//34 741//34 733//34
f 736//34 744//34 743//34 735//34
f 737//34 745//34 744//34 736//34
f 738//34 746//34 745//34 737//34
f 739//34 747//34 746//34 738//34
f 740//34 748//34 747//34 739//34
f 741//34 749//34 748//34 740//34
f 742//34 750//34 749//34 741//34
f 744//34 752//34 751//34 743//34
f 745//34 753//34 752//34 744//34
f 746//34 754//34 753//34 745//34
f 747//34 755//34 754//34 746//34
f 748//34 756//34 755//34 747//34
f 749//34 757//34 756//34 748//34
f 750//34 758//34 757//34 749//34
f 752//34 760//34 759//34 751//34
f 753//34 761//34 760//34 752//34
f 754//34 762//34 761//34 753//34
f 755//34 763//34 762//34 754//34
f 756//34 764//34 763//34 755//34
f 757//34 765//34 764//34 756//34
f 758//34 766//34 765//34 757//34
f 760//34 768//34 767//34 759//34
f 761//34 769//34 768//34 760//34
f 762//34 770//34 769//34 761//34
f 763//34 771//34 770//34 762//34
f 764//34 772//34 771//34 763//34
f 765//34 773//34 772//34 764//34
f 766//34 774//34 773//34 765//34
f 706//34 775//34 718//34 668//34
f 707//34 776//34 775//34 706//34
f 708//34 777//34 776//34 707//34
f 709//34 778//34 777//34 708//34
f 710//34 779//34 778//34 709//34
f 1328//34 1247//34 779//34 710//34
f 775//34 780//34 726//34 718//34
f 776//34 781//34 780//34 775//34
f 777//34 782//34 781//34 776//34
f 778//34 783//34 782//34 777//34
f 779//34 784//34 783//34 778//34
f 1247//34 1248//34 784//34 779//34
f 780//34 785//34 734//34 726//34
f 781//34 786//34 785//34 780//34
f 782//34 787//34 786//34 781//34
f 783//34 788//34 787//34 782//34
f 784//34 789//34 788//34 783//34
f 1248//34 1249//34 789//34 784//34
f 785//34 790//34 742//34 734//34
f 786//34 791//34 790//34 785//34
f 787//34 792//34 791//34 786//34
f 788//34 793//34 792//34 787//34
f 789//34 794//34 793//34 788//34
f 1249//34 1250//34 794//34 789//34
f 790//34 795//34 750//34 742//34
f 791//34 796//34 795//34 790//34
f 792//34 797//34 796//34 791//34
f 793//34 798//34 797//34 792//34
f 794//34 799//34 798//34 793//34
f 1250//34 1251//34 799//34 794//34
f 795//34 800//34 758//34 750//34
f 796//34 801//34 800//34 795//34
f 797//34 802//34 801//34 796//34
f 798//34 803//34 802//34 797//34
f 799//34 804//34 803//34 798//34
f 1251//34 1252//34 804//34 799//34
f 800//34 805//34 766//34 758//34
f 801//34 806//34 805//34 800//34
f 802//34 807//34 806//34 801//34
f 803//34 808//34 807//34 802//34
f 804//34 809//34 808//34 803//34
f 1252//34 1253//34 809//34 804//34
f 805//34 810//34 774//34 766//34
f 806//34 811//34 810//34 805//34
f 807//34 812//34 811//34 806//34
f 808//34 813//34 812//34 807//34
f 809//34 814//34 813//34 808//34
f 1253//34 1254//34 814//34 809//34
f 768//34 816//34 815//34 767//34
f 769//34 817//34 816//34 768//34
f 770//34 818//34 817//34 769//34
f 771//34 819//34 818//34 770//34
f 772//34 820//34 819//34 771//34
f 773//34 821//34 820//34 772//34
f 774//34 822//34 821//34 773//34
f 816//34 824//34 823//34 815//34
f 817//34 825//34 824//34 816//34
f 818//34 826//34 825//34 817//34
f 819//34 827//34 826//34 818//34
f 820//34 828//34 827//34 819//34
f 821//34 829//34 828//34 820//34
f 822//34 830//34 829//34 821//34
f 824//34 832//34 831//34 823//34
f 825//34 833//34 832//34 824//34
f 826//34 834//34 833//34 825//34
f 827//34 835//34 834//34 826//34
f 828//34 836//34 835//34 827//34
f 829//34 837//34 836//34 828//34
f 830//34 838//34 837//34 829//34
f 832//34 840//34 839//34 831//34
f 833//34 841//34 840//34 832//34
f 834//34 842//34 841//34 833//34
f 835//34 843//34 842//34 834//34
f 836//34 844//34 843//34 835//34
f 837//34 845//34 844//34 836//34
f 838//34 846//34 845//34 837//34
f 840//34 848//34 847//34 839//34
f 841//34 849//34 848//34 840//34
f 842//34 850//34 849//34 841//34
f 843//34 851//34 850//34 842//34
f 844//34 852//34 851//34 843//34
f 845//34 853//34 852//34 844//34
f 846//34 854//34 853//34 845//34
f 848//34 856//34 855//34 847//34
f 849//34 857//34 856//34 848//34
f 850//34 858//34 857//34 849//34
f 851//34 859//34 858//34 850//34
f 852//34 860//34 859//34 851//34
f 853//34 861//34 860//34 852//34
f 854//34 862//34 861//34 853//34
f 856//34 864//34 863//34 855//34
f 857//34 865//34 864//34 856//34
f 858//34 866//34 865//34 857//34
f 859//34 867//34 866//34 858//34
f 860//34 868//34 867//34 859//34
f 861//34 869//34 868//34 860//34
f 862//34 870//34 869//34 861//34
f 864//34 872//34 871//34 863//34
f 865//34 873//34 872//34 864//34
f 866//34 874//34 873//34 865//34
f 867//34 875//34 874//34 866//34
f 868//34 876//34 875//34 867//34
f 869//34 877//34 876//34 868//34
f 870//34 878//34 877//34 869//34
f 810//34 879//34 822//34 774//34
f 811//34 880//34 879//34 810//34
f 812//34 881//34 880//34 811//34
f 813//34 882//34 881//34 812//34
f 814//34 883//34 882//34 813//34
f 1254//34 1305//34 883//34 814//34
f 879//34 884//34 830//34 822//34
f 880//34 885//34 884//34 879//34
f 881//34 886//34 885//34 880//34
f 882//34 887//34 886//34 881//34
f 883//34 888//34 887//34 882//34
f 1305//34 1306//34 888//34 883//34
f 884//34 889//34 838//34 830//34
f 885//34 890//34 889//34 884//34
f 886//34 891//34 890//34 885//34
f 887//34 892//34 891//34 886//34
f 888//34 893//34 892//34 887//34
f 1306//34 1307//34 893//34 888//34
f 889//34 894//34 846//34 838//34
f 890//34 895//34 894//34 889//34
f 891//34 896//34 895//34 890//34
f 892//34 897//34 896//34 891//34
f 893//34 898//34 897//34 892//34
f 1307//34 1308//34 898//34 893//34
f 894//34 899//34 854//34 846//34
f 895//34 900//34 899//34 894//34
f 896//34 901//34 900//34 895//34
f 897//34 902//34 901//34 896//34
f 898//34 903//34 902//34 897//34
f 1308//34 1309//34 903//34 898//34
f 899//34 904//34 862//34 854//34
f 900//34 905//34 904//34 899//34
f 901//34 906//34 905//34 900//34
f 902//34 907//34 906//34 901//34
f 903//34 908//34 907//34 902//34
f 1309//34 1310//34 908//34 903//34
f 904//34 909//34 870//34 862//34
f 905//34 910//34 909//34 904//34
f 906//34 911//34 910//34 905//34
f 907//34 912//34 911//34 906//34
f 908//34 913//34 912//34 907//34
f 1310//34 1311//34 913//34 908//34
f 909//34 914//34 878//34 870//34
f 910//34 915//34 914//34 909//34
f 911//34 916//34 915//34 910//34
f 912//34 917//34 916//34 911//34
f 913//34 918//34 917//34 912//34
f 1311//34 1312//34 918//34 913//34
f 872//34 920//34 919//34 871//34
f 873//34 921//34 920//34 872//34
f 874//34 922//34 921//34 873//34
f 875//34 923//34 922//34 874//34
f 876//34 924//34 923//34 875//34
f 877//34 925//34 924//34 876//34
f 878//34 926//34 925//34 877//34
f 920//34 928//34 927//34 919//34
f 921//34 929//34 928//34 920//34
f 922//34 930//34 929//34 921//34
f 923//34 931//34 930//34 922//34
f 924//34 932//34 931//34 923//34
f 925//34 933//34 932//34 924//34
f 926//34 934//34 933//34 925//34
f 928//34 936//34 935//34 927//34
f 929//34 937//34 936//34 928//34
f 930//34 938//34 937//34 929//34
f 931//34 939//34 938//34 930//34
f 932//34 940//34 939//34 931//34
f 933//34 941//34 940//34 932//34
f 934//34 942//34 941//34 933//34
f 936//34 944//34 943//34 935//34
f 937//34 945//34 944//34 936//34
f 938//34 946//34 945//34 937//34
f 939//34 947//34 946//34 938//34
f 940//34 948//34 947//34 939//34
f 941//34 949//34 948//34 940//34
f 942//34 950//34 949//34 941//34
f 944//34 952//34 951//34 943//34
f 945//34 953//34 952//34 944//34
f 946//34 954//34 953//34 945//34
f 947//34 955//34 954//34 946//34
f 948//34 956//34 955//34 947//34
f 949//34 957//34 956//34 948//34
f 950//34 958//34 957//34 949//34
f 952//34 960//34 959//34 951//34
f 953//34 961//34 960//34 952//34
f 954//34 962//34 961//34 953//34
f 955//34 963//34 962//34 954//34
f 956//34 964//34 963//34 955//34
f 957//34 965//34 964//34 956//34
f 958//34 966//34 965//34 957//34
f 960//34 968//34 967//34 959//34
f 961//34 969//34 968//34 960//34
f 962//34 970//34 969//34 961//34
f 963//34 971//34 970//34 962//34
f 964//34 972//34 971//34 963//34
f 965//34 973//34 972//34 964//34
f 966//34 974//34 973//34 965//34
f 968//34 976//34 975//34 967//34
f 969//34 977//34 976//34 968//34
f 970//34 978//34 977//34 969//34
f 971//34 979//34 978//34 970//34
f 972//34 980//34 979//34 971//34
f 973//34 981//34 980//34 972//34
f 974//34 982//34 981//34 973//34
f 914//34 983//34 926//34 878//34
f 915//34 984//34 983//34 914//34
f 916//34 985//34 984//34 915//34
f 917//34 986//34 985//34 916//34
f 918//34 987//34 986//34 917//34
f 1312//34 1267//34 987//34 918//34
f 983//34 988//34 934//34 926//34
f 984//34 989//34 988//34 983//34
f 985//34 990//34 989//34 984//34
f 986//34 991//34 990//34 985//34
f 987//34 992//34 991//34 986//34
f 1267//34 1268//34 992//34 987//34
f 988//34 993//34 942//34 934//34
f 989//34 994//34 993//34 988//34
f 990//34 995//34 994//34 989//34
f 991//34 996//34 995//34 990//34
f 992//34 997//34 996//34 991//34
f 1268//34 1269//34 997//34 992//34
f 993//34 998//34 950//34 942//34
f 994//34 999//34 998//34 993//34
f 995//34 1000//34 999//34 994//34
f 996//34 1001//34 1000//34 995//34
f 997//34 1002//34 1001//34 996//34
f 1269//34 1270//34 1002//34 997//34
f 998//34 1003//34 958//34 950//34
f 999//34 1004//34 1003//34 998//34
f 1000//34 1005//34 1004//34 999//34
f 1001//34 1006//34 1005//34 1000//34
f 1002//34 1007//34 1006//34 1001//34
f 1270//34 1271//34 1007//34 1002//34
f 1003//34 1008//34 966//34 958//34
f 1004//34 1009//34 1008//34 1003//34
f 1005//34 1010//34 1009//34 1004//34
f 1006//34 1011//34 1010//34 1005//34
f 1007//34 1012//34 1011//34 1006//34
f 1271//34 1272//34 1012//34 1007//34
f 1008//34 1013//34 974//34 966//34
f 1009//34 1014//34 1013//34 1008//34
f 1010//34 1015//34 1014//34 1009//34
f 1011//34 1016//34 1015//34 1010//34
f 1012//34 1017//34 1016//34 1011//34
f 1272//34 1273//34 1017//34 1012//34
f 1013//34 1018//34 982//34 974//34
f 1014//34 1019//34 1018//34 1013//34
f 1015//34 1020//34 1019//34 1014//34
f 1016//34 1021//34 1020//34 1015//34
f 1017//34 1022//34 1021//34 1016//34
f 1273//34 1274//34 1022//34 1017//34
f 976//34 1024//34 1023//34 975//34
f 977//34 1025//34 1024//34 976//34
f 978//34 1026//34 1025//34 977//34
f 979//34 1027//34 1026//34 978//34
f 980//34 1028//34 1027//34 979//34
f 981//34 1029//34 1028//34 980//34
f 982//34 1030//34 1029//34 981//34
f 1024//34 1032//34 1031//34 1023//34
f 1025//34 1033//34 1032//34 1024//34
f 1026//34 1034//34 1033//34 1025//34
f 1027//34 1035//34 1034//34 1026//34
f 1028//34 1036//34 1035//34 1027//34
f 1029//34 1037//34 1036//34 1028//34
f 1030//34 1038//34 1037//34 1029//34
f 1032//34 1040//34 1039//34 1031//34
f 1033//34 1041//34 1040//34 1032//34
f 1034//34 1042//34 1041//34 1033//34
f 1035//34 1043//34 1042//34 1034//34
f 1036//34 1044//34 1043//34 1035//34
f 1037//34 1045//34 1044//34 1036//34
f 1038//34 1046//34 1045//34 1037//34
f 1040//34 1048//34 1047//34 1039//34
f 1041//34 1049//34 1048//34 1040//34
f 1042//34 1050//34 1049//34 1041//34
f 1043//34 1051//34 1050//34 1042//34
f 1044//34 1052//34 1051//34 1043//34
f 1045//34 1053//34 1052//34 1044//34
f 1046//34 1054//34 1053//34 1045//34
f 1048//34 1056//34 1055//34 1047//34
f 1049//34 1057//34 1056//34 1048//34
f 1050//34 1058//34 1057//34 1049//34
f 1051//34 1059//34 1058//34 1050//34
f 1052//34 1060//34 1059//34 1051//34
f 1053//34 1061//34 1060//34 1052//34
f 1054//34 1062//34 1061//34 1053//34
f 1056//34 1064//34 1063//34 1055//34
f 1057//34 1065//34 1064//34 1056//34
f 1058//34 1066//34 1065//34 1057//34
f 1059//34 1067//34 1066//34 1058//34
f 1060//34 1068//34 1067//34 1059//34
f 1061//34 1069//34 1068//34 1060//34
f 1062//34 1070//34 1069//34 1061//34
f 1064//34 1072//34 1071//34 1063//34
f 1065//34 1073//34 1072//34 1064//34
f 1066//34 1074//34 1073//34 1065//34
f 1067//34 1075//34 1074//34 1066//34
f 1068//34 1076//34 1075//34 1067//34
f 1069//34 1077//34 1076//34 1068//34
f 1070//34 1078//34 1077//34 1069//34
f 1072//34 1080//34 1079//34 1071//34
f 1073//34 1081//34 1080//34 1072//34
f 1074//34 1082//34 1081//34 1073//34
f 1075//34 1083//34 1082//34 1074//34
f 1076//34 1084//34 1083//34 1075//34
f 1077//34 1085//34 1084//34 1076//34
f 1078//34 1086//34 1085//34 1077//34
f 1018//34 1087//34 1030//34 982//34
f 1019//34 1088//34 1087//34 1018//34
f 1020//34 1089//34 1088//34 1019//34
f 1021//34 1090//34 1089//34 1020//34
f 1022//34 1091//34 1090//34 1021//34
f 1274//34 1275//34 1091//34 1022//34
f 1087//34 1092//34 1038//34 1030//34
f 1088//34 1093//34 1092//34 1087//34
f 1089//34 1094//34 1093//34 1088//34
f 1090//34 1095//34 1094//34 1089//34
f 1091//34 1096//34 1095//34 1090//34
f 1275//34 1276//34 1096//34 1091//34
f 1092//34 1097//34 1046//34 1038//34
f 1093//34 1098//34 1097//34 1092//34
f 1094//34 1099//34 1098//34 1093//34
f 1095//34 1100//34 1099//34 1094//34
f 1096//34 1101//34 1100//34 1095//34
f 1276//34 1277//34 1101//34 1096//34
f 1097//34 1102//34 1054//34 1046//34
f 1098//34 1103//34 1102//34 1097//34
f 1099//34 1104//34 1103//34 1098//34
f 1100//34 1105//34 1104//34 1099//34
f 1101//34 1106//34 1105//34 1100//34
f 1277//34 1278//34 1106//34 1101//34
f 1102//34 1107//34 1062//34 1054//34
f 1103//34 1108//34 1107//34 1102//34
f 1104//34 1109//34 1108//34 1103//34
f 1105//34 1110//34 1109//34 1104//34
f 1106//34 1111//34 1110//34 1105//34
f 1278//34 1279//34 1111//34 1106//34
f 1107//34 1112//34 1070//34 1062//34
f 1108//34 1113//34 1112//34 1107//34
f 1109//34 1114//34 1113//34 1108//34
f 1110//34 1115//34 1114//34 1109//34
f 1111//34 1116//34 1115//34 1110//34
f 1279//34 1280//34 1116//34 1111//34
f 1112//34 1117//34 1078//34 1070//34
f 1113//34 1118//34 1117//34 1112//34
f 1114//34 1119//34 1118//34 1113//34
f 1115//34 1120//34 1119//34 1114//34
f 1116//34 1121//34 1120//34 1115//34
f 1280//34 1281//34 1121//34 1116//34
f 1117//34 1122//34 1086//34 1078//34
f 1118//34 1123//34 1122//34 1117//34
f 1119//34 1124//34 1123//34 1118//34
f 1120//34 1125//34 1124//34 1119//34
f 1121//34 1126//34 1125//34 1120//34
f 1281//34 1282//34 1126//34 1121//34
f 1127//11 517//11 516//11 1149//11
f 1131//11 518//11 517//11 1127//11
f 1135//11 519//11 518//11 1131//11
f 1139//11 520//11 519//11 1135//11
f 1142//11 521//11 520//11 1139//11
f 1144//11 522//11 521//11 1142//11
f 1146//11 523//11 522//11 1144//11
f 1150//11 559//11 523//11 1146//11
f 1128//11 560//11 559//11 1150//11
f 1132//11 561//11 560//11 1128//11
f 1136//11 562//11 561//11 1132//11
f 1140//11 563//11 562//11 1136//11
f 1329//11 1299//11 563//11 1140//11
f 1123//34 1152//34 1148//34 1122//34
f 1080//34 1151//34 1147//34 1079//34
f 1122//34 1148//34 1145//34 1086//34
f 1086//34 1145//34 1143//34 1085//34
f 1085//34 1143//34 1141//34 1084//34
f 1282//34 1330//34 1138//34 1126//34
f 1084//34 1141//34 1137//34 1083//34
f 1126//34 1138//34 1134//34 1125//34
f 1083//34 1137//34 1133//34 1082//34
f 1124//34 1130//34 1152//34 1123//34
f 1125//34 1134//34 1130//34 1124//34
f 1081//34 1129//34 1151//34 1080//34
f 1082//34 1133//34 1129//34 1081//34
f 1330//48 1329//48 1140//48 1136//48 1132//48 1128//48 1150//48 1146//48 1144//48 1142//48 1139//48 1135//48 1131//48 1127//48 1149//48 1240//48 1239//48 1147//48 1151//48 1129//48 1133//48 1137//48 1141//48 1143//48 1145//48 1148//48 1152//48 1130//48 1134//48 1138//48
f 1079//34 1147//34 1239//34 1238//34
f 1071//34 1079//34 1238//34 1237//34
f 1063//34 1071//34 1237//34 1236//34
f 1055//34 1063//34 1236//34 1235//34
f 1047//34 1055//34 1235//34 1234//34
f 1039//34 1047//34 1234//34 1233//34
f 1031//34 1039//34 1233//34 1232//34
f 1023//34 1031//34 1232//34 1231//34
f 9//2 1228//2 1229//2 1//2
f 17//2 1230//2 1228//2 9//2
f 580//2 1227//2 1226//2 572//2
f 564//2 1225//2 1230//2 17//2
f 572//2 1226//2 1225//2 564//2
f 653//34 661//34 1224//34 1223//34
f 645//34 653//34 1223//34 1222//34
f 637//34 645//34 1222//34 1221//34
f 629//34 637//34 1221//34 1220//34
f 621//34 629//34 1220//34 1219//34
f 613//34 621//34 1219//34 1218//34
f 580//34 605//34 1217//34 1227//34
f 605//34 613//34 1218//34 1217//34
f 98//11 90//11 1215//11 1216//11
f 90//11 82//11 1214//11 1215//11
f 82//11 74//11 1213//11 1214//11
f 74//11 66//11 1212//11 1213//11
f 66//11 58//11 1211//11 1212//11
f 58//11 50//11 1210//11 1211//11
f 42//11 1//11 1229//11 1209//11
f 50//11 42//11 1209//11 1210//11
f 204//11 196//11 1207//11 1208//11
f 196//11 188//11 1206//11 1207//11
f 188//11 180//11 1205//11 1206//11
f 180//11 172//11 1204//11 1205//11
f 172//11 164//11 1203//11 1204//11
f 164//11 156//11 1202//11 1203//11
f 148//11 98//11 1216//11 1201//11
f 156//11 148//11 1201//11 1202//11
f 759//34 767//34 1200//34 1199//34
f 751//34 759//34 1199//34 1198//34
f 743//34 751//34 1198//34 1197//34
f 735//34 743//34 1197//34 1196//34
f 727//34 735//34 1196//34 1195//34
f 719//34 727//34 1195//34 1194//34
f 661//34 711//34 1193//34 1224//34
f 711//34 719//34 1194//34 1193//34
f 412//11 404//11 1191//11 1192//11
f 404//11 396//11 1190//11 1191//11
f 396//11 388//11 1189//11 1190//11
f 388//11 380//11 1188//11 1189//11
f 380//11 372//11 1187//11 1188//11
f 372//11 364//11 1186//11 1187//11
f 364//11 356//11 1185//11 1186//11
f 975//34 1023//34 1231//34 1184//34
f 967//34 975//34 1184//34 1183//34
f 959//34 967//34 1183//34 1182//34
f 951//34 959//34 1182//34 1181//34
f 943//34 951//34 1181//34 1180//34
f 935//34 943//34 1180//34 1179//34
f 927//34 935//34 1179//34 1178//34
f 919//34 927//34 1178//34 1177//34
f 356//11 308//11 1176//11 1185//11
f 308//11 300//11 1175//11 1176//11
f 300//11 292//11 1174//11 1175//11
f 292//11 284//11 1173//11 1174//11
f 284//11 276//11 1172//11 1173//11
f 276//11 268//11 1171//11 1172//11
f 268//11 260//11 1170//11 1171//11
f 252//11 204//11 1208//11 1169//11
f 260//11 252//11 1169//11 1170//11
f 871//34 919//34 1177//34 1168//34
f 863//34 871//34 1168//34 1167//34
f 855//34 863//34 1167//34 1166//34
f 847//34 855//34 1166//34 1165//34
f 839//34 847//34 1165//34 1164//34
f 831//34 839//34 1164//34 1163//34
f 823//34 831//34 1163//34 1162//34
f 767//34 815//34 1161//34 1200//34
f 815//34 823//34 1162//34 1161//34
f 1149//11 516//11 1160//11 1240//11
f 516//11 508//11 1159//11 1160//11
f 508//11 500//11 1158//11 1159//11
f 500//11 492//11 1157//11 1158//11
f 492//11 484//11 1156//11 1157//11
f 484//11 476//11 1155//11 1156//11
f 476//11 468//11 1154//11 1155//11
f 460//11 412//11 1192//11 1153//11
f 468//11 460//11 1153//11 1154//11
f 670//49 599//49 593//49 1302//49 1265//49
